<svg width="1820" height="360" viewBox="0 0 1820 360" fill="none" xmlns="http://www.w3.org/2000/svg">
<path d="M270.491 250.93C270.491 265.952 268.311 279.95 263.93 292.922C259.56 305.553 253 316.649 244.248 326.208C235.846 335.767 225.242 343.278 212.459 348.74C200.013 353.861 185.54 356.421 169.062 356.421H0V3.59082H162.502C180.669 3.59082 196.144 6.32137 208.928 11.7846C221.711 16.9054 232.141 23.9035 240.216 32.7803C248.629 41.6559 254.678 51.8985 258.383 63.5057C262.089 75.113 263.93 87.4032 263.93 100.376C263.93 106.521 262.928 113.008 260.901 119.836C259.222 126.663 256.53 133.321 252.836 139.807C249.468 146.294 245.098 152.268 239.715 157.73C234.331 163.192 228.108 167.631 221.035 171.044C229.449 175.142 236.685 180.433 242.733 186.919C249.131 193.064 254.34 199.892 258.383 207.403C262.415 214.573 265.445 222.082 267.461 229.935C269.488 237.446 270.491 244.444 270.491 250.93ZM180.669 109.593C180.669 99.6934 177.803 91.6708 172.092 85.5257C166.37 79.0392 155.941 75.7959 140.803 75.7959H80.2427V139.807H140.803C154.927 139.807 165.019 137.076 171.078 131.613C177.465 125.81 180.669 118.47 180.669 109.593ZM184.2 247.858C184.2 236.933 181.007 227.716 174.609 220.205C168.55 212.694 158.458 208.939 144.335 208.939H80.2427V284.216H144.335C157.456 284.216 167.373 280.973 174.108 274.486C180.832 267.66 184.2 258.783 184.2 247.858Z" fill="#0B0918"/>
<path d="M412.618 3.59082V356.421H332.375V3.59082H412.618Z" fill="#0B0918"/>
<path d="M737.276 307.766C729.539 317.667 720.624 326.031 710.532 332.859C700.778 339.346 690.687 344.637 680.257 348.734C669.828 352.831 659.398 355.732 648.969 357.44C638.539 359.147 628.775 360 619.697 360C603.884 360 587.896 357.781 571.756 353.343C555.605 348.904 540.969 342.076 527.847 332.859C514.726 323.641 503.959 312.034 495.545 298.037C487.47 283.699 483.438 266.799 483.438 247.34V115.732C483.438 96.2727 487.306 79.3745 495.044 65.0356C503.12 50.6967 513.549 38.748 526.333 29.1894C539.454 19.2884 554.09 11.9487 570.241 7.16945C586.381 2.39018 602.87 0 619.697 0C640.218 0 660.739 3.07308 681.26 9.21817C702.119 15.0218 719.447 24.0687 733.244 36.3589L694.381 99.3458C682.938 89.4447 670.667 82.9593 657.546 79.8862C644.762 76.4727 632.818 74.7655 621.713 74.7655C614.989 74.7655 608.254 75.7898 601.529 77.8374C594.794 79.8862 588.572 83.1295 582.85 87.5673C577.139 91.6647 572.421 97.2971 568.726 104.467C565.359 111.295 563.68 119.83 563.68 130.071V229.929C563.68 240.17 565.359 248.877 568.726 256.045C572.083 262.873 576.464 268.507 581.847 272.944C587.231 277.041 593.116 280.114 599.502 282.163C606.237 284.21 612.962 285.235 619.697 285.235C625.745 285.235 631.979 284.381 638.365 282.674C645.089 280.967 651.323 277.724 657.034 272.944V225.32H609.093V156.7H737.276V307.766Z" fill="#0B0918"/>
<path d="M875.633 145.952H1014.41V218.157H875.633V356.421H795.391V3.59082H1038.12V76.3076H875.633V145.952Z" fill="#0B0918"/>
<path d="M1163.66 3.59082V356.421H1083.42V3.59082H1163.66Z" fill="#0B0918"/>
<path d="M1499.46 252.973C1499.46 270.725 1495.76 286.259 1488.36 299.573C1480.96 312.546 1470.87 323.471 1458.08 332.346C1445.64 341.223 1430.83 347.88 1413.67 352.319C1396.85 356.757 1379.02 358.976 1360.18 358.976C1347.39 358.976 1334.95 358.293 1322.84 356.927C1311.06 355.562 1299.63 353.172 1288.52 349.758C1277.42 346.002 1266.31 341.053 1255.22 334.908C1244.45 328.421 1233.68 320.398 1222.91 310.839L1267.83 250.924C1282.64 262.873 1297.44 271.75 1312.24 277.553C1327.37 283.016 1342.52 285.747 1357.66 285.747C1368.76 285.747 1378.02 284.723 1385.42 282.674C1392.82 280.625 1398.7 278.065 1403.07 274.993C1407.79 271.578 1410.98 267.994 1412.66 264.239C1414.68 260.484 1415.69 256.899 1415.69 253.485C1415.69 248.364 1414.35 243.926 1411.66 240.17C1409.3 236.074 1405.1 232.319 1399.04 228.904C1392.98 225.491 1384.9 222.076 1374.81 218.663C1365.06 215.249 1352.78 211.493 1337.98 207.397C1321.83 202.959 1307.53 198.009 1295.08 192.547C1282.64 186.743 1272.03 179.915 1263.29 172.063C1254.88 163.869 1248.48 154.31 1244.11 143.386C1239.74 132.46 1237.55 119.317 1237.55 103.955C1237.55 87.9087 1240.58 73.5709 1246.63 60.9393C1253.03 47.9662 1261.78 37.0407 1272.87 28.1651C1284.31 18.9469 1297.77 11.9487 1313.25 7.16945C1329.06 2.39018 1346.22 0 1364.72 0C1384.9 0 1404.76 1.87745 1424.27 5.63345C1444.12 9.38836 1464.65 18.4353 1485.84 32.7742L1450.01 98.3214C1433.52 87.7385 1418.38 81.0807 1404.59 78.3502C1391.13 75.6185 1377.5 74.2527 1363.72 74.2527C1350.92 74.2527 1340.49 76.4727 1332.43 80.9105C1324.68 85.0069 1320.81 92.0062 1320.81 101.906C1320.81 106.344 1322 110.441 1324.35 114.196C1327.05 117.61 1331.42 121.024 1337.48 124.438C1343.52 127.852 1351.44 131.266 1361.19 134.68C1370.94 137.752 1382.89 141.337 1397.02 145.433C1419.22 151.579 1437.05 158.578 1450.51 166.429C1463.97 173.94 1474.24 182.304 1481.3 191.522C1488.7 200.398 1493.58 210.128 1495.93 220.712C1498.29 230.953 1499.46 241.707 1499.46 252.973Z" fill="#0B0918"/>
<path d="M1738.76 356.421V213.548H1627.73V356.421H1547.48V3.59082H1627.73V140.319H1738.76V3.59082H1820V356.421H1738.76Z" fill="#0B0918"/>
</svg>
