<svg width="21" height="13" viewBox="0 0 21 13" fill="none" xmlns="http://www.w3.org/2000/svg">
<path d="M10.5006 12C14.5006 12 17.9606 9.78 19.7406 6.5C17.9606 3.22 14.5006 1 10.5006 1C6.50062 1 3.04063 3.22 1.26063 6.5C3.04063 9.78 6.50062 12 10.5006 12ZM10.5006 0C15.0606 0 19.0006 2.65 20.8606 6.5C19.0006 10.35 15.0606 13 10.5006 13C5.94062 13 2.00063 10.35 0.140625 6.5C2.00063 2.65 5.94062 0 10.5006 0ZM10.5006 2C13.0006 2 15.0006 4 15.0006 6.5C15.0006 9 13.0006 11 10.5006 11C8.00062 11 6.00063 9 6.00063 6.5C6.00063 4 8.00062 2 10.5006 2ZM10.5006 3C9.57237 3 8.68213 3.36875 8.02575 4.02513C7.36937 4.6815 7.00063 5.57174 7.00063 6.5C7.00063 7.42826 7.36937 8.3185 8.02575 8.97487C8.68213 9.63125 9.57237 10 10.5006 10C11.4289 10 12.3191 9.63125 12.9755 8.97487C13.6319 8.3185 14.0006 7.42826 14.0006 6.5C14.0006 5.57174 13.6319 4.6815 12.9755 4.02513C12.3191 3.36875 11.4289 3 10.5006 3Z" fill="white" fill-opacity="0.5"/>
</svg>
