<svg width="97" height="122" viewBox="0 0 97 122" fill="none" xmlns="http://www.w3.org/2000/svg">
<g clip-path="url(#clip0_1027_3893)">
<mask id="mask0_1027_3893" style="mask-type:luminance" maskUnits="userSpaceOnUse" x="39" y="40" width="20" height="20">
<path d="M41.557 43.5785C40.0547 45.2447 39.1702 47.376 39.0516 49.6161C38.9331 51.8561 39.5877 54.0689 40.9059 55.8842C42.224 57.6994 44.1258 59.0071 46.293 59.5884C48.4602 60.1696 50.7613 59.9892 52.8113 59.0772C54.8613 58.1653 56.5359 56.5772 57.5549 54.5787C58.5738 52.5802 58.8753 50.2924 58.4089 48.0982C57.9424 45.9041 56.7364 43.9366 54.9925 42.525C53.2487 41.1135 51.0728 40.3434 48.8289 40.3438C47.4585 40.3482 46.1041 40.6381 44.852 41.1951C43.5999 41.752 42.4778 42.5638 41.557 43.5785Z" fill="white"/>
</mask>
<g mask="url(#mask0_1027_3893)">
<path d="M59.7367 40.3438H37.8954V61.1485H59.7367V40.3438Z" fill="url(#paint0_radial_1027_3893)"/>
</g>
<mask id="mask1_1027_3893" style="mask-type:luminance" maskUnits="userSpaceOnUse" x="20" y="3" width="65" height="26">
<path d="M20.6946 12.5854C35.1703 5.58809 45.15 10.4147 51.349 16.5268C52.2005 17.378 52.9328 18.1612 53.6225 18.9869C55.9927 21.8154 57.9455 24.9687 59.4213 28.3507C61.75 28.7893 64.1222 28.9522 66.4889 28.836H66.9062H67.2893C73.7206 28.2585 79.7307 25.3917 84.2259 20.7575L84.822 20.1361C83.9704 19.072 83.0083 18.0165 82.012 17.012C74.0197 9.04866 63.4298 4.22359 52.1746 3.41721C40.9195 2.61083 29.7496 5.87691 20.7031 12.6195" fill="white"/>
</mask>
<g mask="url(#mask1_1027_3893)">
<path d="M29.6332 -19.0037L11.7733 25.3438L75.8814 51.1464L93.7413 6.79889L29.6332 -19.0037Z" fill="url(#paint1_linear_1027_3893)"/>
</g>
<mask id="mask2_1027_3893" style="mask-type:luminance" maskUnits="userSpaceOnUse" x="1" y="33" width="30" height="60">
<path d="M3.14961 37.4903C0.23082 48.4002 1.33857 59.996 6.27018 70.1564C11.2018 80.3168 19.6276 88.3627 30.0063 92.8222C16.7227 83.8159 15.8968 72.741 18.0851 64.2965C18.3747 63.1813 18.7153 62.1087 19.0814 61.0957C20.3507 57.6275 22.1114 54.3594 24.3097 51.3914C23.5259 49.1576 22.4828 47.0234 21.2017 45.0325L20.9718 44.6749L20.7504 44.36C17.0352 39.0775 11.5438 35.3069 5.27839 33.7363C5.00591 33.6596 4.72491 33.5915 4.42688 33.5234C3.95004 34.8344 3.50726 36.1538 3.13259 37.5244" fill="white"/>
</mask>
<g mask="url(#mask2_1027_3893)">
<path d="M29.3716 28.895L-11.1637 34.6406L-2.2701 97.3471L38.2652 91.6014L29.3716 28.895Z" fill="url(#paint2_linear_1027_3893)"/>
</g>
<mask id="mask3_1027_3893" style="mask-type:luminance" maskUnits="userSpaceOnUse" x="55" y="44" width="41" height="53">
<path d="M76.1854 69.2585C75.0784 69.5649 73.9715 69.8033 72.9156 69.9991C69.2741 70.6311 65.5609 70.74 61.8885 70.3225C60.3477 72.1203 59.0217 74.0914 57.9375 76.1962C57.8694 76.3239 57.8098 76.4431 57.7417 76.5708L57.5799 76.9198C54.8609 82.7848 54.341 89.4314 56.1153 95.6475C56.1834 95.9199 56.2685 96.1923 56.3537 96.4988C57.7246 96.2519 59.0956 95.9795 60.458 95.6475C71.3611 92.7144 80.8444 85.9571 87.1749 76.6104C93.5053 67.2637 96.2601 55.9519 94.9357 44.7422C93.7691 60.7544 84.5813 66.9941 76.2024 69.3265" fill="white"/>
</mask>
<g mask="url(#mask3_1027_3893)">
<path d="M81.0643 23.4328L28.8567 64.3125L70.6044 117.597L122.812 76.7172L81.0643 23.4328Z" fill="url(#paint3_linear_1027_3893)"/>
</g>
<mask id="mask4_1027_3893" style="mask-type:luminance" maskUnits="userSpaceOnUse" x="5" y="8" width="47" height="43">
<path d="M20.6915 12.588C13.8051 17.3936 8.42256 24.0525 5.16846 31.7924C10.014 32.8218 14.5013 35.1135 18.1755 38.4353C21.8496 41.757 24.5801 45.9908 26.0901 50.7074C27.3844 49.8561 31.361 46.7405 34.0347 38.0832C37.2705 27.6042 43.4014 19.8918 51.3716 16.5208C49.3963 14.0663 46.8871 12.0944 44.0349 10.7551C41.1827 9.41568 38.0626 8.74409 34.9118 8.7914C30.9097 8.7914 26.1753 9.81292 20.6915 12.5795" fill="white"/>
</mask>
<g mask="url(#mask4_1027_3893)">
<path d="M21.5621 -11.8161L-11.6333 38.8672L40.1093 72.7362L73.3047 22.0529L21.5621 -11.8161Z" fill="url(#paint4_linear_1027_3893)"/>
</g>
<mask id="mask5_1027_3893" style="mask-type:luminance" maskUnits="userSpaceOnUse" x="16" y="64" width="45" height="33">
<path d="M30.0088 92.7835C37.6032 96.3395 46.0495 97.6736 54.3706 96.6312C53.4408 93.8318 52.9804 90.8979 53.0082 87.9483C53.0023 80.9351 55.6309 74.1754 60.3737 69.0078L60.4419 68.9057C59.4711 67.8756 56.1077 65.3474 47.4478 67.3138C36.7698 69.7484 24.9764 69.4675 18.0877 64.2578C18.0877 64.2578 10.688 80.1678 30.0088 92.7835Z" fill="white"/>
</mask>
<g mask="url(#mask5_1027_3893)">
<path d="M59.9254 59.248L7.23438 64.6172L11.1934 103.446L63.8844 98.0771L59.9254 59.248Z" fill="url(#paint5_linear_1027_3893)"/>
</g>
<mask id="mask6_1027_3893" style="mask-type:luminance" maskUnits="userSpaceOnUse" x="58" y="21" width="37" height="49">
<path d="M65.2685 31.0463C63.1912 31.0428 61.1197 30.826 59.0866 30.3994H58.9844C58.5927 31.8635 58.2606 35.9922 64.1446 42.317C71.5953 50.3529 77.2408 60.6957 76.1764 69.2764C76.1764 69.2764 93.6579 67.7271 94.9097 44.692C94.1907 36.3282 91.1174 28.3388 86.0455 21.6484C83.4449 24.6043 80.2451 26.9732 76.6585 28.5979C73.072 30.2227 69.1806 31.066 65.243 31.0719" fill="white"/>
</mask>
<g mask="url(#mask6_1027_3893)">
<path d="M93.5646 14.6093L49.2035 23.3984L59.6738 76.2133L104.035 67.4242L93.5646 14.6093Z" fill="url(#paint6_linear_1027_3893)"/>
</g>
<mask id="mask7_1027_3893" style="mask-type:luminance" maskUnits="userSpaceOnUse" x="0" y="3" width="97" height="119">
<path d="M96.3729 3.25781H0.3479V121.498H96.3729V3.25781Z" fill="white"/>
</mask>
<g mask="url(#mask7_1027_3893)">
<path d="M7.92719 109.404C9.12833 109.23 10.341 109.147 11.5546 109.157C13.3428 109.157 14.5945 109.429 15.4546 110.11C15.8276 110.419 16.1224 110.811 16.3148 111.254C16.5072 111.698 16.5917 112.181 16.5615 112.664C16.5523 113.317 16.3435 113.952 15.9629 114.483C15.5824 115.014 15.0484 115.416 14.4327 115.635V115.686C14.8598 115.909 15.2282 116.229 15.5079 116.621C15.7875 117.013 15.9706 117.466 16.0421 117.942C16.4168 119.304 16.7914 120.879 17.0213 121.347H14.2284C13.8564 120.44 13.5713 119.499 13.3769 118.538C13.0533 117.031 12.5253 116.623 11.4269 116.606H10.5754V121.347H7.8761L7.92719 109.404ZM10.6265 114.597H11.6994C13.0618 114.597 13.8622 113.916 13.8622 112.894C13.8622 111.873 13.1044 111.192 11.8526 111.192C11.4394 111.183 11.0262 111.212 10.618 111.277L10.6265 114.597Z" fill="white"/>
<path d="M30.4871 115.166C30.4871 119.116 28.0859 121.516 24.5265 121.516C20.9672 121.516 18.8555 118.809 18.8555 115.379C18.8555 111.761 21.1631 109.062 24.7224 109.062C28.4265 109.062 30.4531 111.838 30.4531 115.166M21.7336 115.328C21.7336 117.686 22.8406 119.354 24.6713 119.354C26.5021 119.354 27.5664 117.601 27.5664 115.251C27.5664 113.089 26.5276 111.225 24.6458 111.225C22.7639 111.225 21.7251 112.978 21.7251 115.319" fill="white"/>
<path d="M33.2391 118.497C34.1768 118.974 35.2101 119.233 36.2619 119.255C37.5137 119.255 38.1778 118.736 38.1778 117.944C38.1778 117.152 37.5988 116.761 36.1512 116.241C34.1417 115.543 32.8388 114.428 32.8388 112.683C32.8388 110.623 34.5419 109.048 37.403 109.048C38.4619 109.027 39.513 109.233 40.4854 109.653L39.8723 111.857C39.0769 111.471 38.2021 111.276 37.3178 111.287C36.1342 111.287 35.5637 111.823 35.5637 112.453C35.5637 113.228 36.2449 113.56 37.8032 114.156C39.932 114.939 40.9367 116.054 40.9367 117.748C40.9367 119.774 39.3785 121.511 36.0661 121.511C34.8884 121.516 33.7244 121.257 32.66 120.753L33.2391 118.497Z" fill="white"/>
<path d="M45.8119 117.516L44.5602 121.304H42.9508L47.0466 109.25H48.9284L53.0412 121.304H51.3382L50.0524 117.516H45.8119ZM49.7714 116.298L48.5878 112.825C48.3153 112.034 48.1365 111.327 47.9662 110.621C47.7874 111.336 47.5915 112.068 47.3616 112.808L46.178 116.298H49.7714Z" fill="white"/>
<path d="M56.6689 110.569H52.9989V109.25H61.9227V110.569H58.2357V121.304H56.6689V110.569Z" fill="white"/>
<path d="M73.9874 115.159C73.9874 119.305 71.4329 121.509 68.3845 121.509C65.3361 121.509 62.9689 119.032 62.9689 115.38C62.9689 111.55 65.3445 109.047 68.5633 109.047C71.782 109.047 73.9874 111.601 73.9874 115.15M64.6208 115.346C64.6208 117.9 66.0173 120.232 68.4696 120.232C70.922 120.232 72.3355 117.968 72.3355 115.227C72.3355 112.826 71.0753 110.324 68.4867 110.324C65.8981 110.324 64.6208 112.707 64.6208 115.346Z" fill="white"/>
<path d="M87.0649 116.016C86.9797 114.314 86.869 112.313 86.8861 110.806H86.835C86.4177 112.219 85.9239 113.743 85.3193 115.386L83.1905 121.243H81.9984L80.0484 115.497C79.4694 113.794 78.9926 112.245 78.6519 110.815C78.6519 112.322 78.5242 114.339 78.4135 116.152L78.0984 121.319H76.6168L77.4683 109.266H79.4524L81.513 115.097C82.0154 116.578 82.4241 117.906 82.7307 119.157H82.7818C83.0883 117.948 83.5141 116.603 84.0505 115.097L86.1963 109.266H88.1804L88.9297 121.319H87.3629L87.0649 116.016Z" fill="white"/>
</g>
</g>
<defs>
<radialGradient id="paint0_radial_1027_3893" cx="0" cy="0" r="1" gradientUnits="userSpaceOnUse" gradientTransform="translate(44.0437 44.1971) rotate(0.0508241) scale(13.819 13.8517)">
<stop stop-color="#0087BB"/>
<stop offset="0.06" stop-color="#0481B4"/>
<stop offset="0.48" stop-color="#1D5887"/>
<stop offset="0.81" stop-color="#2D3E6B"/>
<stop offset="1" stop-color="#333561"/>
</radialGradient>
<linearGradient id="paint1_linear_1027_3893" x1="34.5104" y1="7.9839" x2="75.8193" y2="24.62" gradientUnits="userSpaceOnUse">
<stop stop-color="#0087BB"/>
<stop offset="0.06" stop-color="#0481B4"/>
<stop offset="0.48" stop-color="#1D5887"/>
<stop offset="0.81" stop-color="#2D3E6B"/>
<stop offset="1" stop-color="#333561"/>
</linearGradient>
<linearGradient id="paint2_linear_1027_3893" x1="17.6279" y1="82.8692" x2="11.3796" y2="38.788" gradientUnits="userSpaceOnUse">
<stop stop-color="#0087BB"/>
<stop offset="0.06" stop-color="#0481B4"/>
<stop offset="0.48" stop-color="#1D5887"/>
<stop offset="0.81" stop-color="#2D3E6B"/>
<stop offset="1" stop-color="#333561"/>
</linearGradient>
<linearGradient id="paint3_linear_1027_3893" x1="90.2768" y1="57.4158" x2="55.2147" y2="84.8866" gradientUnits="userSpaceOnUse">
<stop stop-color="#0087BB"/>
<stop offset="0.06" stop-color="#0481B4"/>
<stop offset="0.48" stop-color="#1D5887"/>
<stop offset="0.81" stop-color="#2D3E6B"/>
<stop offset="1" stop-color="#333561"/>
</linearGradient>
<linearGradient id="paint4_linear_1027_3893" x1="21.2148" y1="39.6257" x2="39.9149" y2="11.0572" gradientUnits="userSpaceOnUse">
<stop stop-color="#0087BB"/>
<stop offset="0.06" stop-color="#0481B4"/>
<stop offset="0.48" stop-color="#1D5887"/>
<stop offset="0.81" stop-color="#2D3E6B"/>
<stop offset="1" stop-color="#333561"/>
</linearGradient>
<linearGradient id="paint5_linear_1027_3893" x1="53.4412" y1="78.1534" x2="20.1271" y2="81.55" gradientUnits="userSpaceOnUse">
<stop stop-color="#0087BB"/>
<stop offset="0.06" stop-color="#0481B4"/>
<stop offset="0.48" stop-color="#1D5887"/>
<stop offset="0.81" stop-color="#2D3E6B"/>
<stop offset="1" stop-color="#333561"/>
</linearGradient>
<linearGradient id="paint6_linear_1027_3893" x1="74.9973" y1="30.2153" x2="81.7847" y2="64.4732" gradientUnits="userSpaceOnUse">
<stop stop-color="#0087BB"/>
<stop offset="0.06" stop-color="#0481B4"/>
<stop offset="0.48" stop-color="#1D5887"/>
<stop offset="0.81" stop-color="#2D3E6B"/>
<stop offset="1" stop-color="#333561"/>
</linearGradient>
<clipPath id="clip0_1027_3893">
<rect width="96.1619" height="121.342" fill="white" transform="translate(0.418213)"/>
</clipPath>
</defs>
</svg>
