<svg width="242" height="48" viewBox="0 0 242 48" fill="none" xmlns="http://www.w3.org/2000/svg">
<path d="M108.721 13.2012L132.979 37.4903L129.687 40.7867L108.768 19.8402V47.8768H98.8796V9.93946L95.5875 6.65465L98.8796 3.35826H108.768L108.721 13.2012ZM133.43 47.8421H143.318V3.30044H133.43V47.8421ZM64.2372 13.2012H93.8894V3.30044H64.2487L64.2372 13.2012ZM148.25 47.8421H192.722V37.9414H148.261L148.25 47.8421ZM49.4169 47.8421H59.3048V3.30044H49.3822L49.4169 47.8421ZM64.2372 47.8421H93.8894V37.9414H64.2487L64.2372 47.8421ZM84.0362 20.6267H64.2487V30.5274H84.0362V20.6267ZM18.9676 22.2807L22.2597 25.577L18.9676 28.8735L37.9118 47.8421H44.496V41.2493L28.844 25.577L44.496 9.90477L37.9118 3.31198L18.9676 22.2807ZM9.91136 18.9843V3.30044H0.0234375V47.8305H9.91136V32.1698L16.4956 25.577L9.91136 18.9843ZM186.173 0.015625L182.881 3.31198H148.261V13.2127H172.981L154.846 31.3486L161.268 37.9414L185.976 13.2012H192.734V3.30044H189.442L186.173 0.015625ZM237.241 11.7323L230.16 18.8223C231.478 20.8299 232.166 23.1864 232.136 25.5886C232.114 28.8644 230.805 31.9999 228.492 34.3163C226.179 36.6326 223.047 37.9433 219.776 37.9645C217.388 37.9163 215.056 37.2337 213.018 35.9867L205.937 43.0768C209.872 46.2376 214.754 47.9812 219.799 48.0272C222.722 48.0394 225.619 47.4719 228.323 46.3573C231.026 45.2427 233.482 43.6031 235.549 41.5332C237.617 39.4632 239.254 37.0039 240.367 34.2971C241.48 31.5902 242.047 28.6895 242.035 25.7621C242.219 20.6462 240.503 15.6434 237.218 11.7207L237.241 11.7323ZM207.589 25.6118C207.61 22.336 208.919 19.2005 211.233 16.8841C213.546 14.5678 216.677 13.2571 219.949 13.2359C222.337 13.2841 224.669 13.9667 226.706 15.2137L233.787 8.12355C230.521 5.47046 226.568 3.80402 222.391 3.31932C218.213 2.83463 213.984 3.55176 210.199 5.38677C206.413 7.22177 203.229 10.0987 201.017 13.6806C198.806 17.2625 197.66 21.4011 197.713 25.6118C197.68 30.6763 199.431 35.5903 202.657 39.4913L209.738 32.4012C208.345 30.3926 207.588 28.0106 207.566 25.5655L207.589 25.6118Z" fill="white"/>
</svg>
