<svg width="307" height="55" viewBox="0 0 307 55" fill="none" xmlns="http://www.w3.org/2000/svg">
<g clip-path="url(#clip0_1027_3831)">
<path fill-rule="evenodd" clip-rule="evenodd" d="M97.0385 14.0744L89.4969 33.1425C89.4969 33.1425 86.6143 39.9321 93.4203 40.9241H134.289C134.289 40.9241 138.196 39.2157 138.55 35.3469H105.201C105.201 35.3469 102.76 35.3028 102.183 34.2447C101.605 33.1866 102.003 32.404 102.226 31.638C102.45 30.872 109.277 14.0027 109.277 14.0027L97.0385 14.0468V14.0744ZM150.555 14.0303H162.69L152.146 40.9241H140.419L150.555 14.0303ZM155.367 40.9682H167.965L172.177 30.2657H201.499C201.499 30.2657 204.469 29.5438 205.624 25.8569H173.91L175.861 20.7758C175.861 20.7758 176.259 19.0233 178.831 18.7532C181.403 18.4832 211.994 18.7532 211.994 18.7532C211.994 18.7532 215.885 16.9401 215.809 13.9697H170.853C170.853 13.9697 166.308 13.7051 164.003 18.7202C161.698 23.7352 155.35 40.9682 155.35 40.9682H155.367ZM192.524 40.9682C192.524 40.9682 225.966 15.3474 226.783 14.879C228.386 13.9095 230.295 13.5978 232.118 14.0082C234.87 14.5593 235.965 17.6951 235.965 17.6951L242.69 38.1906C242.985 38.7616 243.064 39.4219 242.913 40.0478C242.823 40.284 242.67 40.4909 242.473 40.6463C242.275 40.8016 242.039 40.8996 241.79 40.9296H216.948L216.059 36.1956H227.061C227.241 36.1968 227.42 36.159 227.584 36.0849C227.748 36.0108 227.895 35.9019 228.015 35.7658C228.522 35.2587 228.135 33.9692 228.135 33.9692C228.135 33.9692 225.955 26.623 225.71 25.9341C225.633 25.5895 225.457 25.2754 225.206 25.0306C224.954 24.7857 224.637 24.6208 224.293 24.5563C223.558 24.5213 222.838 24.7829 222.293 25.2838L201.434 40.9792L192.524 40.9682ZM246.106 40.9682L255.479 17.1826C255.479 17.1826 257.114 12.2888 261.854 14.2011L284.741 30.3705C284.741 30.3705 286.921 31.8584 287.972 29.9957L294.304 14.0137H306.755L297.917 36.1681C297.917 36.1681 296.435 40.2793 293.628 41.1776C290.822 42.0759 287.863 39.4361 287.863 39.4361L266.808 24.4461C266.808 24.4461 265.859 23.6525 265.211 23.9556C264.563 24.2587 264.41 25.0578 264.203 25.6089C263.996 26.16 258.143 41.0398 258.143 41.0398C258.143 41.0398 246.106 41.0122 246.106 40.9516V40.9682Z" fill="white"/>
<path fill-rule="evenodd" clip-rule="evenodd" d="M46.2962 0.874014L46.3725 0.918102L46.4488 0.956679L46.5196 0.995256L46.6013 1.02281H46.6885H46.7703H46.8575H46.9392L47.1027 1.09997H47.5822L48.3669 1.32592L49.1625 1.55738L49.9417 1.80538L50.7209 2.05337L51.5001 2.3179L52.2685 2.59345L52.6554 2.73674L53.0368 2.88554L53.4183 3.03433L53.7943 3.18864L54.1702 3.34846L54.5517 3.50277L54.9222 3.6681L55.2764 3.85548L55.6524 4.02632L56.0175 4.19716L56.3881 4.37902L56.7532 4.56089L57.1128 4.74275L57.4779 4.93564L57.8375 5.12852L58.1972 5.33243L58.5514 5.53083L58.911 5.74025L59.2543 5.94967L59.6085 6.16459L59.7284 6.19766L59.8374 6.23624L59.9409 6.29135L60.0499 6.34646L60.148 6.41259L60.2461 6.48423L60.3442 6.56139L60.4368 6.63854L60.6384 6.79836L60.8346 6.94716L60.9327 7.02431L61.0471 7.08494L61.1561 7.15107L61.276 7.20067L61.4667 7.34395L61.6574 7.47071L61.8536 7.60297L62.0443 7.73524L62.235 7.87301L62.4257 8.0163L62.5238 8.09345L62.6165 8.18163L62.72 8.26981L62.8126 8.36349L63.0197 8.52882L63.2268 8.68864L63.4393 8.84846L63.6464 9.00828L63.8534 9.1681L64.0605 9.32792L64.273 9.49325L64.4801 9.65858L67.2973 12.3755V12.5078V12.5464L67.33 12.6235L67.3736 12.6952L67.4172 12.7613L67.4717 12.8219L67.5371 12.8825L67.5916 12.9376L67.7114 13.0424L67.815 13.1526L67.8531 13.2077V13.2738V13.3124V13.373L67.9458 13.4502L68.022 13.5218L68.0929 13.5935L68.1583 13.6706L68.2673 13.8139L68.3653 13.9572L68.4689 14.106L68.5724 14.2493L68.6378 14.3209L68.7086 14.3981L68.7904 14.4697L68.8776 14.5358L68.9321 14.6405L68.992 14.7563L69.0628 14.8775L69.1337 15.0098L69.2045 15.142L69.2699 15.2853L69.3407 15.4341L69.3898 15.5719L69.4388 15.5995L69.4824 15.6325L69.5206 15.6711L69.5642 15.7152L69.6295 15.8144L69.6949 15.9136L69.8039 16.1395L69.902 16.3545L70.1581 16.608L70.5341 17.0819L70.7793 17.5669L71.0136 18.0464L71.2316 18.5479L71.4441 19.0494L71.6403 19.5674L71.8256 20.1185L71.9945 20.6696L72.158 21.2207L72.3051 21.7718L72.4359 22.3229L72.5558 22.874L72.6647 23.4251L72.7574 23.9762L72.8391 24.5273L72.9045 25.0784L72.9535 25.6295L72.9971 26.2082L73.0244 26.7593V27.3379V27.9221V28.4732L72.9917 29.0243L72.9481 29.603L72.8936 30.1541L72.8173 30.7052L72.7138 31.4106L72.6157 31.9617L72.4958 32.5128L72.365 33.0639L72.2179 33.615L72.0599 34.1661L71.9563 34.5188L71.8528 34.866L71.7438 35.2132L71.6185 35.5549L71.4932 35.8966L71.3624 36.2327L71.2207 36.5689L71.079 36.9051L70.9265 37.2302L70.7684 37.5609L70.5995 37.886L70.4306 38.2167L70.2562 38.5308L70.0709 38.8505L69.8857 39.1701L69.684 39.4842L69.4879 39.7929L69.2754 40.1015L69.0683 40.4101L68.8503 40.7132L68.6215 41.0053L68.3926 41.3029L68.1528 41.6005L67.9131 41.887L67.6678 42.1791L67.4117 42.4657L67.1502 42.7523L66.8832 43.0278L66.6216 43.3034L66.3437 43.5789L66.0603 43.849L65.777 44.119H65.6299L65.4882 44.3119L65.341 44.5048L65.2648 44.5985L65.183 44.6866L65.1013 44.7748L65.025 44.8575L64.9378 44.9457L64.8506 45.0283L64.758 45.1055L64.6544 45.1771L64.5564 45.2377L64.4528 45.3039L64.3438 45.359L64.224 45.4141L64.1749 45.5023L64.115 45.5849L64.055 45.6566L63.9897 45.7227L63.9188 45.7778L63.848 45.8329L63.7717 45.8825L63.69 45.9266L63.5374 46.0313L63.3739 46.1415L63.2922 46.2022L63.2213 46.2738L63.1396 46.3565L63.0687 46.4502H63.0197H62.9761H62.938L62.8889 46.4832L62.8126 46.5659L62.7309 46.6596L62.6873 46.7037L62.6437 46.7588L62.5947 46.7974L62.5456 46.8359L62.4911 46.8745L62.4312 46.9021H62.3712H62.295L62.1805 47.0178L62.0552 47.1225L61.9244 47.2162L61.7991 47.3099L61.5375 47.4697L61.276 47.6185L61.009 47.7618L60.7474 47.9161L60.6166 48.0098L60.4967 48.1035L60.3714 48.2082L60.2461 48.3239L60.1807 48.4948L60.088 48.5278L60.0009 48.5719L59.9082 48.6215L59.7393 48.7317L59.5649 48.8475L59.4015 48.9687L59.2325 49.0789L59.1399 49.1285L59.0527 49.1726L58.9601 49.2057L58.8674 49.2387L58.6059 49.4978L58.2026 49.6906L57.7939 49.8835L57.3907 50.0764L56.9929 50.2693L56.5951 50.4567L56.1919 50.6441L55.7887 50.8204L55.3854 51.0023L54.9822 51.1731L54.5789 51.344L54.1702 51.5038L53.7561 51.6581L53.342 51.8124L52.9278 51.9557L52.4973 52.0824L52.0723 52.2092L51.8816 52.3029L51.68 52.3525L51.4893 52.4241L51.2985 52.4847L51.1078 52.5454L50.9116 52.595L50.7209 52.6501L50.5302 52.6942L50.3831 52.7493L50.2414 52.8099L50.0943 52.8705L49.9471 52.9366L49.8055 52.9918L49.6638 53.0413H49.5875H49.5221H49.4458H49.3695L49.2714 53.1075L49.1734 53.1626L49.0589 53.2067L48.9499 53.2453L48.8301 53.2838H48.7156H48.5957H48.4704H48.356H48.2361H48.1217L48.0018 53.3224L47.8928 53.361L47.7784 53.4051L47.6803 53.4657L47.5822 53.5318L47.1245 53.6365L46.6558 53.7412L46.1872 53.8404L45.7186 53.9286L45.2445 54.0168L44.765 54.0995L44.2854 54.1766L43.795 54.2538L43.3155 54.3254L42.8251 54.3915L42.3292 54.4467L41.8333 54.5073L41.3374 54.5569L40.8416 54.601L40.3402 54.6395L39.8389 54.6781L39.3376 54.7057H38.8363H38.3349H37.8227H37.3214H35.3052H34.7984H34.2971H33.7958H33.2945L32.7986 54.6671L32.3027 54.6285L31.8068 54.5789L31.0222 54.4797L30.2375 54.5569L29.4528 54.4356L28.6845 54.3034L27.9161 54.1656L27.1478 54.0058L26.3958 53.8625L25.6384 53.6917L24.8973 53.5098L24.1453 53.3224L23.4097 53.113L22.674 52.9036L21.9384 52.6776L21.2082 52.4406L20.4834 52.1871L19.7587 51.9336L19.568 51.8289L19.3773 51.7187L19.1756 51.6085L18.974 51.5093L18.8759 51.4597L18.767 51.4156L18.6634 51.3825L18.549 51.344H18.44H18.331H18.2111H18.0913L17.8515 51.1952L17.6117 51.0408L17.3665 50.881L17.1322 50.6992L17.0069 50.6275L16.8761 50.5559L16.7453 50.5008L16.5873 50.4126L16.4511 50.363L16.3148 50.3189L16.1732 50.2803L16.0424 50.2473L15.4157 49.878L14.8 49.5088L14.1842 49.1285L13.5684 48.7427L12.9636 48.3404L12.3642 47.9437L12.059 47.7342L11.7648 47.5248L11.4651 47.3099L11.1763 47.095L10.8766 46.8745L10.5932 46.6375L10.2989 46.4116L10.0156 46.1856L9.72133 45.9487L9.43252 45.7392L9.14917 45.4968L8.87126 45.2543L8.5879 45.0063L8.30999 44.7583L8.03208 44.4993L7.75963 44.2402L7.48717 43.9812L7.21471 43.7112L6.9477 43.4356L6.68069 43.1601V43.0884L6.6153 42.9837L6.56626 42.9176L6.50632 42.8515L6.37009 42.7247L6.23386 42.6035L6.08128 42.4712L5.92325 42.3224L5.85786 42.2453L5.78702 42.1626L5.68894 42.0744V41.9752L5.56906 41.8815L5.48732 41.8044L5.41648 41.7217L5.35109 41.6446L5.23666 41.4792L5.14402 41.3304L5.09498 41.2478L5.03504 41.1596L4.96965 41.0769L4.90426 40.9998L4.82252 40.9171L4.73533 40.8399L4.59911 40.7793L4.48467 40.7022L4.43018 40.5589L4.36479 40.4101L4.31575 40.2282L4.23401 40.0849L4.14682 39.9417L4.05419 39.8149L3.96155 39.6771L3.86347 39.5283H3.81987L3.78173 39.4953V39.4567V39.4181L3.74358 39.3244L3.70544 39.2307V39.1866V39.1315V39.0874L3.67275 39.0434L3.50927 38.9717L3.46568 38.9331L3.41119 38.9001H3.34579V38.8009V38.7127V38.63L3.30765 38.5529L3.26406 38.4647L3.22046 38.3875L3.17142 38.3104L3.11693 38.2332L2.96435 38.0514L2.86082 37.875L2.81178 37.7813L2.76818 37.6821L2.73004 37.5719V37.4562L2.59926 37.3239L2.35949 36.8555L2.12518 36.3705L1.91811 35.88L1.72194 35.3951L1.53667 34.8936L1.3623 34.381L1.19882 33.874L1.04624 33.356L0.910014 32.8049L0.784683 32.2538L0.6757 31.7027L0.572166 31.1516L0.484979 30.6005L0.419589 30.0494L0.359648 29.4983L0.310605 28.9472L0.272461 28.3961V27.845V26.7428V26.1916L0.299707 25.6405L0.3433 25.0894L0.397792 24.5383L0.468631 23.9872L0.54492 23.4361L0.648454 22.885L0.751988 22.3339L0.877319 21.7828L1.0081 21.2317L1.15523 20.7137L1.29691 20.3885L1.42224 20.0303L1.55302 19.6831L1.68925 19.3359L1.83092 18.9887L1.98895 18.6471L2.14153 18.2999L2.305 17.9637L2.46848 17.622L2.6483 17.2858L2.82812 16.9497L3.0134 16.619L3.20957 16.2828L3.40574 15.9797L3.61825 15.6491L3.82532 15.3184L4.04329 14.9933L4.26126 14.6736L4.49012 14.3264L4.72444 14.0068L4.95875 13.6927L5.20941 13.3785L5.45463 13.0589L5.71074 12.7503L5.9723 12.4416L6.23386 12.122L6.50087 11.8134L6.77877 11.5103L7.06213 11.2182L7.34549 10.9151L7.62885 10.6175L7.92855 10.3254L8.22281 10.0333L8.31544 10.0003L8.40263 9.9672L8.48437 9.92311L8.5661 9.87351L8.64239 9.82391L8.71323 9.76329L8.78407 9.70818L8.84946 9.64756L8.98024 9.52632L9.10557 9.4161L9.17096 9.3665L9.23635 9.3169L9.30719 9.28934L9.37803 9.25628L9.44887 9.1681L9.52516 9.07993L9.6069 9.00277L9.68318 8.93113L9.84121 8.80437L10.0047 8.68864L10.1518 8.58393L10.2935 8.47922L10.3643 8.4186L10.4243 8.35247L10.4788 8.29185L10.5278 8.22572L10.6695 8.12101L10.8221 8.03283L10.9637 7.93914L11.1054 7.85097L11.2525 7.7683L11.3942 7.69666L11.5414 7.63053L11.683 7.57542L11.7375 7.50377L11.792 7.44315L11.8574 7.38253L11.9173 7.32742L12.0536 7.22271L12.1953 7.12902L12.3369 7.02431L12.4732 6.91961L12.544 6.87001L12.6039 6.80387L12.6584 6.74325L12.7075 6.67161L12.8056 6.64405L12.8982 6.61099H12.9908L13.078 6.57241L13.2469 6.48423L13.4159 6.38504L13.5848 6.29135L13.7592 6.19766L13.8464 6.16459L13.9281 6.12051L14.0207 6.09295H14.1243L14.1897 6.02131L14.2714 5.95518L14.3477 5.90007L14.424 5.83945L14.5929 5.74576L14.7618 5.65758L14.9525 5.50878L15.1215 5.43163L15.2795 5.34896L15.4321 5.25528L15.8135 5.06239L16.2004 4.8695L16.5818 4.68213L16.9687 4.49476L17.3502 4.31289L17.7371 4.14756L18.1185 3.98774L18.4782 3.85548V3.81139L18.5054 3.77832V3.74526H18.5326H18.5926H18.7179H18.8923L19.35 3.53033L19.9167 3.30437L20.4017 3.09496L20.8812 2.91309L21.339 2.75327L21.8294 2.57692L22.3144 2.41159L22.8102 2.25177L23.2952 2.09746L23.7965 1.94866L24.2924 1.79987L24.7937 1.65107L25.306 1.50778L25.8073 1.38103L26.3141 1.25427L26.8154 1.12752L26.8426 1.09997L26.8808 1.07241H26.9244H26.968H27.066H27.1205H27.2295H27.4856H27.5347H27.5837L28.0306 0.896058L28.5101 0.796859L28.9951 0.697661L29.4746 0.614996L29.9923 0.548863L30.4881 0.471709L30.9895 0.383533L31.4908 0.3174L32.003 0.26229L32.5098 0.212691L33.022 0.163092L33.5669 0.119004L34.0791 0.0859375H34.6241H35.169H35.7139H36.2588H37.8173H38.3622H38.9071H39.4193L39.9642 0.113493L40.471 0.146559L40.9778 0.185136L41.4791 0.229224L41.9804 0.273312L42.4763 0.328422L42.7433 0.350467L43.2337 0.416599L43.7187 0.488242L44.0457 0.53233L44.3672 0.581929L44.6832 0.626018L44.9993 0.681128L45.3099 0.725216L45.6259 0.774815L45.9474 0.818904L46.2798 0.874014H46.2962ZM49.5003 3.97121L48.9554 3.78383L48.4105 3.60197L47.8656 3.42011L47.3206 3.24926L46.7485 3.08944L46.1654 2.92963L45.5823 2.78634L44.923 2.64856L44.3345 2.5163L43.7405 2.40057L43.1466 2.29586L42.5472 2.20217L41.9423 2.1195L41.3429 2.03684L40.7435 1.97071L40.1386 1.92111L39.3485 1.87151H38.5529L37.7682 1.84395H36.9781H35.4033H35.0109H34.6241H34.2317H33.8448H33.4579L33.071 1.87151H32.6896L32.3027 1.90457L31.9213 1.94315L31.5453 1.98173L31.1638 2.02582L30.7878 2.07542L30.4064 2.13053L30.0358 2.18013L29.6653 2.31239L29.2948 2.37852L28.9297 2.45017L28.5755 2.5163L28.2104 2.59345L27.8507 2.68163L27.7145 2.75327H27.5946L27.4856 2.80287L27.3603 2.83594L27.1205 2.89105L26.8808 2.93514L26.641 2.99025L26.4012 3.04536L26.2814 3.07842L26.156 3.11149L26.0416 3.15558L25.9163 3.19967L25.5893 3.29886L25.2678 3.39255L24.9518 3.49175L24.6357 3.58544L24.3251 3.68464L24.0091 3.77832L23.6712 3.85548L23.3443 3.94916L22.9846 4.09796L22.625 4.24676L22.2817 4.40658L21.9275 4.5664L21.5787 4.72622L21.2354 4.88604L20.8867 5.06239L20.5488 5.23323L20.2055 5.40958L19.8677 5.59696L19.5244 5.78433L19.1811 5.97722L18.8487 6.17562L18.5108 6.37401L18.173 6.58894L17.8406 6.79836L17.6499 6.90307L17.4537 7.01329L17.3556 7.07391L17.263 7.14556L17.1649 7.22822L17.0723 7.32191L17.0232 7.366L16.9633 7.40457L16.9088 7.44315L16.8543 7.47622L16.7344 7.53133L16.62 7.59746H16.5546L16.5001 7.63604L16.4402 7.6691L16.3857 7.71319L16.3257 7.76279L16.2712 7.81239L16.2222 7.87852L16.1732 7.93914L16.026 8.03834L15.8843 8.13203L15.7372 8.23674L15.5955 8.33043L15.4484 8.42963L15.3067 8.52331L15.1651 8.62251L15.0125 8.7162L14.898 8.83193L14.7782 8.94215L14.6528 9.04686L14.5384 9.14606L14.3041 9.32792L14.0752 9.50979L13.9608 9.59796L13.8464 9.69716L13.7374 9.79085L13.6284 9.90107L13.5194 10.0113L13.4213 10.127L13.3178 10.3034L13.2197 10.4356L13.1216 10.4852L13.0344 10.5403L12.9418 10.5955L12.8546 10.6616L12.7729 10.7277L12.6857 10.7883L12.6039 10.86L12.5331 10.9316L12.3751 11.0804L12.2279 11.2402L12.0808 11.4001L11.9391 11.5654L11.6449 11.9071L11.3397 12.2543L11.1817 12.4251L11.0128 12.5849L10.8384 12.7448L10.6531 12.8936V12.9652V13.0258V13.0864L10.6204 13.1415L10.5877 13.1967L10.5442 13.2463L10.4897 13.2959L10.4406 13.3455L10.397 13.3951L10.348 13.4447L10.3044 13.4998L10.2717 13.5494L10.239 13.6045L10.2118 13.6651V13.7312V13.7753L10.1246 13.8304L10.0428 13.88L9.98289 13.9296L9.92295 13.9902L9.87391 14.0454L9.84121 14.106L9.80307 14.1721L9.76492 14.2272L9.72678 14.2934L9.68863 14.3485L9.64504 14.4091L9.596 14.4642L9.54151 14.5248L9.48156 14.5799L9.40528 14.635L9.31264 14.6791L9.02384 15.2302L8.72413 15.7428L8.41898 16.2939L8.13017 16.8119L7.98849 17.0709L7.84681 17.3354L7.71603 17.6055L7.58525 17.8645L7.45992 18.1456L7.34004 18.4211L7.23651 18.7022L7.13297 18.9943L7.06758 19.0659L7.00764 19.1431L6.95315 19.2202L6.90955 19.3029L6.86596 19.3855L6.82782 19.4682L6.79512 19.5509L6.76788 19.6335L6.70794 19.8044L6.64799 19.9697L6.6153 20.0524L6.5826 20.1295L6.53901 20.2067L6.49542 20.2838L6.32649 20.8956L6.10853 21.4907L5.95595 22.1245L5.81972 22.7638L5.75433 23.0889L5.68894 23.4196L5.63445 23.7503L5.57996 24.0809L5.53091 24.4116L5.48187 24.7478L5.44373 25.0784L5.40013 25.4146L5.36744 25.7508L5.34019 26.0925V26.4286V26.7648V27.1065V28.4732V28.8149V29.1566L5.37289 29.4983L5.40558 29.8399L5.44918 30.1816L5.49822 30.5233L5.55271 30.8595L5.65624 31.4106L5.77068 31.9617L5.89056 32.5128L6.03769 33.0639L6.10853 33.3339L6.18481 33.604L6.26655 33.874L6.34284 34.1385L6.43003 34.3976L6.51721 34.6511L6.60985 34.9046L6.70249 35.1471L6.76243 35.3399L6.82237 35.5273L6.89866 35.7202L6.98039 35.9076L7.06758 36.095L7.16022 36.2823L7.26375 36.4642L7.36184 36.6516L7.5689 37.0318L7.77052 37.4176L7.86316 37.616L7.9558 37.8254L8.04298 38.0348L8.11927 38.2498L8.18466 38.2828L8.23915 38.3214L8.28275 38.36L8.32634 38.4096L8.35903 38.4647L8.39173 38.5253L8.41353 38.5749V38.6355L8.46257 38.7733L8.52251 38.9056L8.56065 38.9717L8.6097 39.0268L8.66419 39.0874L8.72958 39.137L8.78407 39.2803L8.84401 39.4071L8.91485 39.5393L8.98569 39.6551L9.05653 39.7763L9.12192 39.9031L9.19276 40.0298L9.2418 40.1731H9.27995H9.31264H9.33989L9.38893 40.2172L9.42707 40.2778L9.49246 40.3936L9.5524 40.5093L9.5851 40.5589L9.61779 40.603L9.65594 40.636H9.70498H9.83576H9.87391H9.9175H9.96109L10.8548 38.8009L11.743 36.9657L12.6312 35.136L13.5249 33.3009L14.4621 31.5208L15.3558 29.6801L16.2385 27.845L17.1322 26.0153L18.0204 24.1801L18.9086 22.345L19.8023 20.5153L20.6905 18.6746L21.5787 16.8394L22.4669 15.0098L23.3606 13.1746L24.2434 11.345H37.7083L37.8391 11.4717L37.7083 11.5985L37.5394 11.9401L37.3704 12.2763L37.207 12.6125L37.038 12.9376L36.8691 13.2683L36.7002 13.5935L36.5422 13.9241L36.3787 14.2493L36.2152 14.5799L36.0572 14.9051L35.8992 15.2357L35.7411 15.5609L35.5886 15.8971L35.4414 16.2222L35.2889 16.5639L35.1417 16.9001L34.9074 17.3134L34.684 17.7267L34.4606 18.1456L34.2426 18.5699L34.041 18.9887L33.8339 19.4131L33.6378 19.8374L33.447 20.2618L33.2509 20.6861L33.0656 21.1105L32.8803 21.5293L32.695 21.9537L32.5043 22.3725L32.3191 22.7913L32.1338 23.2102L31.9376 23.618L31.6869 23.7503L31.5126 24.0699L31.3382 24.384L31.1638 24.7092L30.984 25.0288L30.7987 25.3485L30.6135 25.6736L30.4227 25.9877L30.2211 26.3019L30.025 26.616L29.8179 26.9246L29.6108 27.2332L29.3928 27.5308L29.1694 27.8284L28.946 28.115L28.7171 28.3905L28.4774 28.6606V28.7102V28.7543V28.7984V28.8425L28.4283 28.9196L28.3739 28.9912L28.3139 29.0574L28.2431 29.118L28.1668 29.1841L28.1014 29.2503L28.0251 29.3054L27.9597 29.3715L27.8889 29.4321L27.8289 29.4983L27.7744 29.5699L27.7254 29.6471L27.6982 29.6911V29.7352V29.7793V29.8289L24.3633 33.1906H24.2161H24.1671L24.118 33.2182L24.069 33.2513L23.9709 33.3394L23.8674 33.4442L23.753 33.5544L23.6331 33.6646L23.5677 33.7087L23.5077 33.7528L23.4369 33.7913H23.3715L23.3116 33.8575L23.2571 33.9181L23.1971 33.9732L23.1317 34.0228L22.9955 34.111L22.8538 34.1937L22.783 34.2377L22.7122 34.2818L22.6359 34.3369L22.5705 34.3865L22.5105 34.4527L22.4451 34.5243L22.3907 34.607L22.3416 34.6952L22.2217 34.7503L22.1019 34.8054L21.982 34.866L21.8621 34.9321L21.7477 35.0038L21.6278 35.0809L21.5133 35.1581L21.3935 35.2407L21.17 35.4171L20.9521 35.6045L20.7287 35.8194L20.527 36.0123L20.102 36.2272L19.6661 36.4477L19.2465 36.6736L18.816 36.8996L18.391 37.1255L17.9714 37.3404L17.5409 37.5664L17.1159 37.7868L16.6854 38.0073L16.2603 38.2167L15.8244 38.4206L15.3939 38.63L14.9525 38.8229L14.5057 39.0158L14.0589 39.1922L13.6066 39.3685L13.5085 39.4126L13.4104 39.4512L13.3123 39.4842H13.2034L13.0017 39.5283L12.8056 39.5669H12.7075L12.6257 39.6L12.5386 39.6385L12.4568 39.6826L12.3751 39.7377L12.3097 39.7984L12.277 39.8369L12.2497 39.8755L12.2225 39.9251V39.9692L26.8372 40.096L26.7609 40.3109L26.6901 40.5203L26.6083 40.7297L26.5266 40.9281L26.3686 41.3194L26.1996 41.6997L26.0307 42.0689L25.8618 42.4381L25.7038 42.8184L25.5566 43.1987L25.513 43.2483L25.4749 43.2979V43.3585V43.4081L25.4313 43.5293L25.3986 43.6561V43.7112V43.7718V43.8324L25.3659 43.8931L25.3278 43.9426L25.2787 44.0033L25.2242 44.0529L25.1588 44.1025L13.3668 44.2347V44.3615L13.4649 44.5158L13.5848 44.6701L13.7047 44.8299L13.8409 44.9897L13.9172 45.0669L13.9989 45.1441L14.0698 45.2157L14.157 45.2873L14.2441 45.359L14.3313 45.4141L14.424 45.4747L14.5166 45.5243L14.5656 45.6125L14.6256 45.7007L14.6855 45.7668L14.7509 45.8329L14.8218 45.8936L14.898 45.9432L14.9689 45.9927L15.0452 46.0368L15.2032 46.1415L15.3667 46.2518L15.4484 46.3179L15.5193 46.384L15.5955 46.4722L15.6718 46.5604H15.7209H15.7645H15.8081H15.8462L15.917 46.6265L15.9933 46.6982L16.0642 46.7698L16.1405 46.8359H16.1786H16.2222H16.2658H16.3148L16.3911 46.9241L16.462 47.0013L16.5437 47.0674L16.62 47.128L16.7072 47.1721L16.7835 47.2162L16.8706 47.2548L16.9524 47.2878L17.0396 47.3264L17.1213 47.365L17.2085 47.4091L17.2848 47.4532L17.3665 47.5138L17.4428 47.5744L17.5245 47.6516L17.5954 47.7453L17.7153 47.7949L17.8351 47.85L17.9441 47.9106L18.0531 47.9767L18.2711 48.109L18.489 48.2468L18.598 48.3074L18.707 48.3735L18.816 48.4286L18.9304 48.4892L19.0394 48.5333L19.1538 48.5774L19.2683 48.616H19.3882L19.4862 48.6987L19.5843 48.7813L19.6824 48.853L19.786 48.9301L19.9876 49.0679L20.2001 49.1891L20.4072 49.3049L20.6251 49.4151L20.8376 49.5088L21.0556 49.608L21.4861 49.7788L21.9166 49.9497L22.1182 50.0323L22.3307 50.115L22.5269 50.2032L22.7176 50.3024L23.4042 50.5834L24.1017 50.848L24.8101 51.096L25.5348 51.3384L26.265 51.5534L27.0116 51.7628L27.769 51.9447L28.5319 52.1155L29.3057 52.2753L30.0849 52.4076L30.8805 52.5398L31.6706 52.6446L32.4716 52.7382L33.2727 52.8099L34.0737 52.8705L34.8856 52.9201H35.6921H36.504H37.3105H38.117L38.918 52.8815L39.719 52.8319L40.5201 52.7658L41.1685 52.9036L41.9477 52.7989L42.7324 52.6886L43.5008 52.5564L44.2582 52.4076L45.0102 52.2478L45.7458 52.0659L46.476 51.873L47.1953 51.6691L47.3915 51.6195L47.5822 51.5699L47.7729 51.5203L47.9636 51.4707L48.1598 51.4266L48.3505 51.3715L48.5412 51.3274L48.732 51.2778L48.8682 51.1841L48.999 51.107L49.1243 51.0464L49.2496 50.9857L49.3641 50.9417H49.4894H49.5493H49.8273H49.8654H49.9035H49.9308L49.9962 50.8865L50.0507 50.8204H50.0834H50.1161H50.1542H50.1923H50.2414H50.2904H50.3558H50.4212L50.7645 50.6275L51.1133 50.4346L51.4729 50.2417L51.8489 50.0599L52.2249 49.8835L52.6009 49.7072L52.9878 49.5474L53.3692 49.3986L53.4183 49.349L53.4673 49.3104L53.5272 49.2663L53.5817 49.2277L53.7071 49.1561L53.8324 49.0899L53.9741 49.0348L54.1103 48.9797L54.252 48.9301L54.3937 48.8805L54.5898 48.7372L54.8023 48.5884L55.0094 48.4452L55.2274 48.3019L55.4453 48.1531L55.6579 48.0098L55.8595 47.861L56.0611 47.7122L56.2082 47.6185L56.3499 47.5303L56.4916 47.4311L56.6442 47.3485L56.7858 47.2658L56.9275 47.1886L57.0692 47.1225L57.2163 47.0729L57.2654 46.9792L57.3144 46.8966L57.3744 46.8249L57.4288 46.7698L57.4888 46.7092L57.5542 46.6596L57.6141 46.6155L57.6795 46.5714L57.8103 46.4832L57.952 46.3951L58.0228 46.351L58.0991 46.2903L58.1699 46.2352L58.2408 46.1636H58.3062L58.377 46.125L58.4315 46.0809L58.486 46.0368L58.595 45.9266L58.6931 45.8054L58.7857 45.6841L58.8892 45.5739L58.9437 45.5298L59.0091 45.4857L59.069 45.4472H59.1399L59.6194 45.0118L60.0989 44.5654L60.3333 44.3505L60.5676 44.1245L60.7964 43.8986L61.0253 43.6671L61.2542 43.4356L61.4776 43.2042L61.6956 42.9672L61.9135 42.7192L62.126 42.4712L62.3331 42.2177L62.5347 41.9642L62.7254 41.6997V41.6556V41.606V41.5619L62.7581 41.5233L62.8344 41.4462L62.9162 41.3745L62.9598 41.3359L62.9979 41.2974L63.0306 41.2588V41.2202V41.1816V41.099V41.0494L63.1178 40.9777L63.205 40.9006L63.2813 40.8234L63.3576 40.7407L63.4175 40.6581L63.4774 40.5699L63.5374 40.4872L63.5919 40.4046L63.6954 40.2392L63.8098 40.0684L63.8643 39.9857L63.9951 39.6771L64.0605 39.6L64.1259 39.5228L64.4801 38.9993L64.8125 38.4482L65.1285 37.8971L65.4282 37.346L65.7116 36.7618L65.9732 36.1611L66.2184 35.5604L66.4472 34.9432L66.6598 34.3149L66.8505 33.6811L67.0194 33.0363L67.172 32.386L67.3082 31.7302L67.4281 31.0744L67.5262 30.4076L67.6025 29.7407L67.6624 29.0684L67.706 28.4016V27.7237V27.0018V26.3239L67.6678 25.6571L67.6134 24.9902L67.5316 24.3179L67.4335 23.6566L67.3191 23.0008L67.1829 22.3505L67.0194 21.7057L66.8396 21.0664L66.6434 20.4326L66.4091 19.8374L66.1748 19.2257L66.0767 19.0108L65.9786 18.7959L65.8805 18.5864L65.7715 18.3715L65.5536 17.9582L65.3301 17.5504L65.1013 17.1315L64.8615 16.7182L64.6218 16.2939L64.3874 15.864L64.2894 15.6711L64.1749 15.4782L64.115 15.379L64.0387 15.2853L63.957 15.1861L63.8698 15.0925H63.8316H63.7935V15.12V15.1476H63.7608H63.7172L63.4556 15.6987L63.1886 16.2498L62.9216 16.7733L62.6601 17.2969L62.3985 17.848L62.1315 18.3991L61.8699 18.9226L61.6029 19.4737L61.3359 20.0248L61.0743 20.5484L60.8128 21.0995L60.5458 21.6506L60.1807 22.0418L59.9191 22.593L59.6521 23.1441L59.3851 23.6621L59.2979 23.8054L59.2216 23.9321L59.1399 24.0644L59.069 24.1856L58.9982 24.3069L58.9219 24.4281L58.8402 24.5604L58.7476 24.6982L58.6822 24.7533L58.6168 24.8029L58.5459 24.7974L58.4969 24.847L58.4151 24.9682L58.3443 25.0839L58.268 25.2052L58.1863 25.3209L58.1372 25.3815L58.0828 25.4366L58.0283 25.4917L57.9574 25.5413L57.9247 25.613L57.892 25.6736L57.8539 25.7453L57.8048 25.8114L57.6959 25.9326L57.5869 26.0539L57.5378 26.12L57.4888 26.1751L57.4397 26.2412L57.4016 26.3019L57.3635 26.3625V26.4341V26.5003V26.5719L57.1455 26.7703L56.9112 27.0018L56.6932 27.2057L56.4752 27.4151L56.0393 27.845L55.6088 28.2803L55.1729 28.7157L54.7424 29.1456L54.5244 29.355L54.3065 29.5644L54.0776 29.7573L53.8651 29.9557H53.7888L53.7125 29.9832L53.6471 30.0218L53.5708 30.0714L53.4292 30.1596L53.2875 30.2698L53.1404 30.38L52.9932 30.4958L52.8515 30.6005L52.7044 30.7052H52.5845L52.4756 30.7493L52.372 30.7934L52.263 30.854L52.1649 30.9146L52.0669 30.9862L51.9688 31.0579L51.8761 31.1295L51.7726 31.2012L51.68 31.2728L51.5819 31.3389L51.4784 31.4051L51.3803 31.4657L51.2658 31.5098L51.1569 31.5539H51.037V31.5925V31.62V31.6476L50.9171 31.7964L50.868 31.8294H50.819H50.7536H50.6991H50.6392H50.5792H50.5193H50.4648H50.4103L50.3667 31.8625L50.3231 31.9011V31.9286V31.9672L50.1597 32.0554L49.9907 32.1491L49.8218 32.2317L49.6529 32.3144L49.315 32.4632L48.9826 32.612L48.6448 32.7608L48.3069 32.9151L48.138 32.9923L47.9691 33.0749L47.8056 33.1631L47.6367 33.2623L47.5604 33.3064L47.4787 33.3394H47.3915H47.3097L47.1027 33.615L46.9283 33.6591H46.8466L46.7648 33.6922L46.694 33.7252L46.6231 33.7693L46.5904 33.7969V33.8299V33.8685V33.9071V33.9512V33.9953L56.4643 34.1275L56.4099 34.3204L56.3499 34.5133L56.2736 34.7062L56.1919 34.8825L56.1047 35.0644L56.0121 35.2407L55.9194 35.4006L55.8213 35.5494V35.6431L55.7941 35.7312L55.7614 35.8194L55.7287 35.8966L55.6524 36.0398L55.5707 36.1776L55.4835 36.3099L55.3963 36.4421L55.2982 36.5689L55.2056 36.7122H43.6043L43.4735 36.5799L44.2473 34.9983L45.0156 33.4166L45.784 31.8349L46.5577 30.3414L47.3261 28.7598L48.0944 27.1781L48.8682 25.5965L49.6365 24.0148L50.4049 22.4221L51.1732 20.8404L51.9361 19.2863L52.7044 17.7047L53.4782 16.123L54.2465 14.5358L55.0149 12.9542L55.7832 11.3725H60.6548L60.5948 11.2458L60.5294 11.1245L60.4477 11.0088L60.3605 10.8875L60.257 10.7663L60.148 10.6506L60.0336 10.5348L59.9137 10.4191L59.6739 10.1876L59.4232 9.9672L59.1944 9.76329L58.9873 9.5649H58.862L58.595 9.34445L58.328 9.12401L58.061 8.90908L57.8048 8.69415L57.5378 8.48474L57.2654 8.26981L56.9984 8.0659L56.7314 7.8675L56.4589 7.66359L56.1864 7.47071L55.9085 7.28884L55.6361 7.10698L55.3582 6.93063L55.0694 6.7653L54.786 6.60548L54.5026 6.45668L54.1866 6.23624L53.876 6.05989L53.5654 5.88353L53.2493 5.70718L52.9387 5.54185L52.6227 5.37101L52.3121 5.2167L52.0069 5.05688L51.6909 4.90257L51.3803 4.7648L51.0642 4.62151L50.7536 4.48924L50.4376 4.35147L50.127 4.22472L49.8273 4.09245L49.5166 3.97121H49.5003ZM52.4483 11.345H40.7871L39.9261 13.1195L39.0706 14.8775L38.2151 16.6521L37.3541 18.4266L36.4986 20.2067L35.6594 22.0088L34.7984 23.7833L33.9429 25.5634L33.0819 27.3379L32.2264 29.1125L31.3545 30.8926L30.4936 32.6671L29.6653 34.4472L28.7989 36.2272L27.927 38.0238L27.0715 39.8039V40.0629H41.5554L41.6262 39.87L41.7134 39.6771L41.8006 39.4897L41.8987 39.3024L42.0949 38.9386L42.291 38.5749L42.3837 38.3875L42.4763 38.2112L42.5581 38.0293L42.6398 37.8419L42.6997 37.6546L42.7433 37.4727V37.3735V37.2743V37.1806V37.0814H30.6571L30.4009 36.8279L30.8805 36.6405L31.3654 36.4587L31.8341 36.2713L32.3082 36.0894L32.5425 35.9847L32.7768 35.88L33.0056 35.7808L33.2345 35.6651L33.4579 35.5494L33.6813 35.4226L33.9048 35.2903L34.1173 35.1471L34.3134 35.0699L34.4987 34.9928L34.684 34.9156L34.8638 34.8329L35.2235 34.6676L35.5777 34.4857L35.921 34.2984L36.2643 34.111L36.6021 33.9181L36.94 33.7252L36.989 33.6811L37.038 33.6426L37.0925 33.604L37.147 33.5709L37.2615 33.5158L37.3704 33.4717L37.4794 33.4166L37.5721 33.3615L37.6157 33.3284L37.6483 33.2954L37.681 33.2568L37.7083 33.2127L37.8391 33.0639L37.9807 32.9757L38.1224 32.8765L38.2641 32.7939L38.4167 32.7112L38.5584 32.6395L38.7 32.5679L38.8417 32.5183L38.8962 32.4301L38.9562 32.3475L39.0161 32.2758L39.076 32.2152L39.1469 32.1601L39.2123 32.105L39.2886 32.0609L39.3539 32.0168L39.5011 31.9341L39.6427 31.846L39.7027 31.7964L39.7681 31.7412L39.8226 31.6806L39.8716 31.6145H39.9207H39.9642H40.0078L40.046 31.5814L40.1223 31.4988L40.204 31.4051L40.2476 31.361L40.2966 31.3059L40.3402 31.2673L40.3893 31.2287L40.4492 31.1901H40.5092H40.5691H40.6399L41.0977 30.7272L41.5173 30.3029L41.9151 29.9006L42.291 29.5148L42.667 29.118L43.0376 28.7212L43.4245 28.2913L43.8495 27.8284V27.7843L43.8768 27.7347V27.6962L43.9149 27.6521L43.9857 27.5804L44.0675 27.5033L44.2473 27.36L44.438 27.1836V27.112V27.0514V26.9907V26.9356V26.8805L44.4762 26.8364L44.5034 26.7924L44.5416 26.7483L44.6124 26.6656L44.6723 26.5884V26.5388V26.5003V26.4562V26.4066L44.814 26.2578L44.9448 26.1035L45.0701 25.9492L45.19 25.7838L45.299 25.613L45.4134 25.4477L45.517 25.2713L45.6205 25.1005L45.8221 24.7478L46.0237 24.3951L46.1273 24.2132L46.2417 24.0368L46.3507 23.866L46.4706 23.6896L46.5632 23.4968L46.6613 23.3039L46.7594 23.111L46.8684 22.9181L46.9773 22.7252L47.1027 22.5268L47.228 22.3339L47.3697 22.141L47.6748 21.4742L48.1925 20.7302L48.4977 20.0579L48.8028 19.391L49.0971 18.7352L49.4077 18.0629L49.7128 17.3905L50.018 16.7237L50.3177 16.0569L50.6228 15.379L50.9171 14.6957L51.2168 14.0233L51.5274 13.3565L51.8434 12.6731L52.1486 12.0063L52.4483 11.345Z" fill="white"/>
</g>
<defs>
<clipPath id="clip0_1027_3831">
<rect width="306.516" height="55" fill="white" transform="translate(0.241211)"/>
</clipPath>
</defs>
</svg>
