<svg width="42" height="24" viewBox="0 0 42 24" fill="none" xmlns="http://www.w3.org/2000/svg">
<path d="M41.7773 21.6607C41.7265 21.5511 41.6791 21.4601 41.635 21.3873C40.9063 20.0749 39.5138 18.464 37.4583 16.5542L37.4149 16.5104L37.3931 16.489L37.3711 16.467H37.3491C36.4162 15.5777 35.8254 14.9797 35.578 14.6736C35.1254 14.0904 35.024 13.5001 35.2714 12.902C35.4461 12.4501 36.1027 11.4958 37.2395 10.0377C37.8374 9.26496 38.311 8.64563 38.6607 8.17903C41.183 4.82582 42.2765 2.68308 41.941 1.74995L41.8107 1.53189C41.7232 1.40062 41.4972 1.28052 41.1332 1.17099C40.7683 1.06169 40.3019 1.04362 39.7332 1.11646L33.4355 1.15996C33.3335 1.12381 33.1878 1.12718 32.998 1.17099C32.8085 1.2148 32.7136 1.23678 32.7136 1.23678L32.604 1.29155L32.517 1.35734C32.4441 1.40084 32.3639 1.47736 32.2764 1.58673C32.1893 1.69573 32.1165 1.82363 32.0582 1.96939C31.3726 3.73339 30.593 5.37346 29.7181 6.88953C29.1787 7.79354 28.6833 8.57701 28.2308 9.24037C27.779 9.90351 27.4 10.3921 27.0941 10.7053C26.7877 11.0188 26.5112 11.2699 26.2629 11.4596C26.015 11.6494 25.8257 11.7296 25.6946 11.7003C25.5633 11.671 25.4396 11.6418 25.3225 11.6127C25.1185 11.4815 24.9545 11.3029 24.8308 11.077C24.7065 10.851 24.6229 10.5666 24.5792 10.224C24.5357 9.88122 24.5099 9.58634 24.5026 9.33841C24.4957 9.09079 24.4989 8.74053 24.5137 8.28864C24.5288 7.83651 24.5357 7.5306 24.5357 7.37022C24.5357 6.81615 24.5465 6.21482 24.5681 5.56609C24.5902 4.91735 24.608 4.40334 24.623 4.02467C24.6378 3.64561 24.6447 3.24457 24.6447 2.82179C24.6447 2.399 24.619 2.06743 24.5681 1.82677C24.5179 1.58643 24.4408 1.35313 24.3391 1.12695C24.2369 0.901003 24.0872 0.72622 23.8908 0.60214C23.6941 0.478214 23.4494 0.379869 23.1583 0.3068C22.3856 0.13194 21.4016 0.0373484 20.2059 0.0226427C17.4944 -0.00646235 15.7522 0.168627 14.9795 0.547683C14.6734 0.707837 14.3964 0.926661 14.1487 1.20347C13.8862 1.52431 13.8496 1.6994 14.0391 1.7282C14.9139 1.85925 15.5332 2.17274 15.8977 2.66837L16.0291 2.93101C16.1313 3.1205 16.2333 3.45597 16.3354 3.93697C16.4373 4.41797 16.5031 4.95006 16.5321 5.53292C16.6048 6.59733 16.6048 7.50847 16.5321 8.26643C16.4591 9.02469 16.3901 9.61499 16.3243 10.0378C16.2586 10.4606 16.1602 10.8032 16.0291 11.0655C15.8977 11.3279 15.8103 11.4883 15.7665 11.5465C15.7228 11.6047 15.6863 11.6414 15.6574 11.6558C15.4679 11.7284 15.2708 11.7654 15.0669 11.7654C14.8626 11.7654 14.6149 11.6632 14.3234 11.459C14.0319 11.2548 13.7295 10.9743 13.416 10.6171C13.1025 10.2598 12.7489 9.76051 12.3552 9.11913C11.9617 8.47774 11.5535 7.71971 11.1307 6.84503L10.7809 6.21069C10.5622 5.8026 10.2635 5.2084 9.88447 4.42861C9.50518 3.64852 9.16994 2.89393 8.8785 2.16501C8.76201 1.85887 8.58699 1.6258 8.35377 1.46541L8.24432 1.39962C8.17156 1.34141 8.05475 1.2796 7.89452 1.21373C7.73406 1.14794 7.56663 1.10076 7.39154 1.07173L1.3998 1.11523C0.787522 1.11523 0.372085 1.25394 0.153338 1.53097L0.0657928 1.66202C0.0220586 1.73502 0 1.85159 0 2.01205C0 2.17244 0.0437342 2.36928 0.131279 2.60235C1.00596 4.65809 1.95716 6.64068 2.98488 8.55043C4.01259 10.4602 4.90566 11.9985 5.66354 13.1641C6.42157 14.3305 7.19424 15.4314 7.98153 16.4662C8.76882 17.5013 9.28996 18.1647 9.54493 18.4561C9.80021 18.7481 10.0007 18.9664 10.1465 19.1121L10.6933 19.6369C11.0432 19.9868 11.5569 20.4059 12.2349 20.8942C12.9129 21.3828 13.6636 21.8638 14.4873 22.338C15.3111 22.8114 16.2695 23.1977 17.363 23.4965C18.4564 23.7956 19.5205 23.9156 20.5557 23.8577H23.0705C23.5805 23.8137 23.967 23.6533 24.2296 23.3765L24.3166 23.2669C24.3751 23.1799 24.4299 23.0447 24.4804 22.8628C24.5316 22.6806 24.557 22.4798 24.557 22.2614C24.5421 21.6347 24.5898 21.0698 24.6989 20.5669C24.8079 20.0642 24.9321 19.6851 25.071 19.4298C25.2099 19.1748 25.3666 18.9596 25.541 18.7851C25.7158 18.6102 25.8403 18.5043 25.9134 18.4678C25.986 18.4311 26.044 18.4062 26.0877 18.3913C26.4376 18.2747 26.8494 18.3876 27.3236 18.7305C27.7975 19.0731 28.242 19.4962 28.6577 19.9989C29.0732 20.5021 29.5724 21.0667 30.1555 21.6934C30.7389 22.3204 31.249 22.7865 31.6862 23.0931L32.1233 23.3555C32.4153 23.5306 32.7944 23.691 33.261 23.8367C33.7267 23.9824 34.1348 24.0189 34.4852 23.946L40.0831 23.8587C40.6368 23.8587 41.0676 23.767 41.3732 23.5851C41.6795 23.4029 41.8614 23.2022 41.92 22.9838C41.9786 22.7652 41.9817 22.5172 41.9311 22.2399C41.8793 21.9634 41.8282 21.77 41.7773 21.6607Z" fill="#9CFE00"/>
</svg>
