<svg width="42" height="30" viewBox="0 0 42 30" fill="none" xmlns="http://www.w3.org/2000/svg">
<path d="M21.3549 29.4557C16.7824 29.3116 12.4342 29.1995 8.08593 29.0313C7.14901 28.9913 6.19608 28.8471 5.28319 28.6309C3.56952 28.2305 2.38437 27.1975 1.77577 25.5079C1.2873 24.1465 1.11112 22.7452 0.982998 21.3198C0.702725 17.9725 0.702725 14.6252 0.838858 11.278C0.918936 9.38812 0.966983 7.48226 1.47147 5.64847C1.77577 4.5514 2.14413 3.47836 3.033 2.68558C3.96991 1.84476 5.06698 1.34027 6.3162 1.28422C9.74355 1.11605 13.1629 0.907849 16.5902 0.875818C21.2027 0.827771 25.8232 0.891834 30.4357 0.97992C32.4297 1.01996 34.4396 1.12406 36.4176 1.38031C38.2273 1.62054 39.5807 2.62953 40.3014 4.39125C40.8539 5.74457 41.0621 7.16195 41.1822 8.60336C41.4945 12.2149 41.5025 15.8264 41.3264 19.4379C41.2383 21.2717 41.1502 23.1135 40.6297 24.8993C40.0371 26.9493 38.7799 28.3026 36.6818 28.767C35.865 28.9432 35.0162 29.0073 34.1834 29.0393C29.8271 29.1914 25.4789 29.3276 21.3549 29.4557ZM16.9266 20.3508C20.5781 18.461 24.1896 16.5871 27.8732 14.6733C24.1976 12.7514 20.5861 10.8696 16.9266 8.9557C16.9266 12.7754 16.9266 16.5311 16.9266 20.3508Z" fill="#9CFE00"/>
</svg>
