<svg width="34" height="40" viewBox="0 0 34 40" fill="none" xmlns="http://www.w3.org/2000/svg">
<path d="M3.528 17.158C3.40084 17.2876 3.24912 17.3905 3.08171 17.4608C2.9143 17.531 2.73456 17.5672 2.553 17.5672C2.37144 17.5672 2.1917 17.531 2.02429 17.4608C1.85688 17.3905 1.70516 17.2876 1.578 17.158C1.31917 16.8947 1.17414 16.5402 1.17414 16.171C1.17414 15.8018 1.31917 15.4473 1.578 15.184L13.64 3.00033C16.36 0.888387 19.096 -0.125587 21.82 0.0124097C25.252 0.188405 27.924 1.49637 30.192 3.64232C32.504 5.83026 34 8.95218 34 12.7361C34 15.64 33.156 18.1959 31.374 20.4639L14.368 37.9834C12.648 39.3934 10.736 40.0754 8.688 39.9934C6.088 39.8854 4.154 39.0454 2.716 37.6235C1.032 35.9615 0 33.9195 0 31.1736C0 28.9897 0.754 26.9737 2.31 25.0818L17.278 9.80016C18.478 8.52019 19.652 7.76021 20.852 7.57622C21.6529 7.45077 22.4724 7.52274 23.2391 7.78588C24.0059 8.04902 24.6969 8.49538 25.252 9.08618C26.316 10.2122 26.772 11.6161 26.612 13.2141C26.502 14.304 26.056 15.308 25.236 16.27L11.476 30.3656C11.3497 30.4957 11.1987 30.5993 11.0319 30.6704C10.8651 30.7416 10.6858 30.7788 10.5045 30.7799C10.3232 30.781 10.1435 30.746 9.97581 30.677C9.80815 30.6079 9.65592 30.5061 9.528 30.3776C9.26757 30.1159 9.12037 29.7623 9.11813 29.3931C9.11588 29.0239 9.25877 28.6686 9.516 28.4037L23.21 14.38C23.61 13.9101 23.82 13.4361 23.87 12.9321C23.95 12.1321 23.758 11.5421 23.26 11.0161C23.0083 10.747 22.6941 10.5442 22.3452 10.4256C21.9963 10.307 21.6236 10.2763 21.26 10.3361C20.774 10.4101 20.094 10.8521 19.256 11.7441L4.35 26.9577C3.276 28.2677 2.756 29.6577 2.756 31.1756C2.756 33.0836 3.446 34.4495 4.64 35.6275C5.59 36.5675 6.88 37.1275 8.8 37.2075C10.16 37.2615 11.42 36.8115 12.516 35.9235L29.31 18.6239C30.6 16.97 31.244 15.024 31.244 12.7381C31.244 9.77416 30.09 7.37022 28.308 5.68227C26.488 3.95831 24.408 2.94234 21.682 2.80234C19.666 2.69834 17.552 3.48232 15.448 5.09428L3.528 17.158Z" fill="white"/>
</svg>
