<?xml version="1.0" encoding="UTF-8"?>
<!DOCTYPE svg PUBLIC "-//W3C//DTD SVG 1.1//EN" "http://www.w3.org/Graphics/SVG/1.1/DTD/svg11.dtd">
<!-- Creator: CorelDRAW -->
<svg xmlns="http://www.w3.org/2000/svg" xml:space="preserve" width="0.609394in" height="0.515075in" version="1.1" style="shape-rendering:geometricPrecision; text-rendering:geometricPrecision; image-rendering:optimizeQuality; fill-rule:evenodd; clip-rule:evenodd"
viewBox="0 0 17.88 15.11"
 xmlns:xlink="http://www.w3.org/1999/xlink"
 xmlns:xodm="http://www.corel.com/coreldraw/odm/2003">
 <defs>
  <style type="text/css">
   <![CDATA[
    .fil0 {fill:red}
   ]]>
  </style>
 </defs>
 <g id="Layer_x0020_1">
  <metadata id="CorelCorpID_0Corel-Layer"/>
  <path class="fil0" d="M0.95 2.57l7.16 0c0.42,-1.48 1.78,-2.57 3.39,-2.57 1.62,0 2.98,1.09 3.39,2.57l2.03 0c0.52,0 0.95,0.43 0.95,0.95l0 0c0,0.52 -0.43,0.95 -0.95,0.95l-2.03 0c-0.42,1.48 -1.78,2.57 -3.39,2.57 -1.62,0 -2.98,-1.09 -3.39,-2.57l-7.16 0c-0.52,0 -0.95,-0.43 -0.95,-0.95l0 -0c0,-0.52 0.43,-0.95 0.95,-0.95zm4.58 5.49c1.62,0 2.98,1.09 3.39,2.57l8 0c0.52,0 0.95,0.43 0.95,0.95l0 0c0,0.52 -0.43,0.95 -0.95,0.95l-8 0c-0.42,1.48 -1.78,2.57 -3.39,2.57 -1.62,0 -2.98,-1.09 -3.39,-2.57l-1.18 0c-0.52,0 -0.95,-0.43 -0.95,-0.95l0 -0c0,-0.52 0.43,-0.95 0.95,-0.95l1.18 0c0.42,-1.48 1.78,-2.57 3.39,-2.57zm0 2c0.84,0 1.53,0.68 1.53,1.53 0,0.84 -0.68,1.53 -1.53,1.53 -0.84,0 -1.53,-0.68 -1.53,-1.53 0,-0.84 0.68,-1.53 1.53,-1.53zm5.97 -8.06c0.84,0 1.53,0.68 1.53,1.53 0,0.84 -0.68,1.53 -1.53,1.53 -0.84,0 -1.53,-0.68 -1.53,-1.53 0,-0.84 0.68,-1.53 1.53,-1.53z"/>
 </g>
</svg>
