<svg width="25" height="24" viewBox="0 0 25 24" fill="none" xmlns="http://www.w3.org/2000/svg">
<path d="M12.6667 21C14.4467 21 16.1868 20.4722 17.6668 19.4832C19.1468 18.4943 20.3004 17.0887 20.9816 15.4442C21.6628 13.7996 21.841 11.99 21.4937 10.2442C21.1465 8.49836 20.2893 6.89472 19.0306 5.63604C17.772 4.37737 16.1683 3.5202 14.4225 3.17294C12.6767 2.82567 10.8671 3.0039 9.22252 3.68509C7.57799 4.36628 6.17238 5.51983 5.18345 6.99987C4.19451 8.47991 3.66667 10.22 3.66667 12C3.66667 13.488 4.02667 14.89 4.66667 16.127L3.66667 21L8.53967 20C9.77567 20.639 11.1797 21 12.6667 21Z" stroke="white" stroke-opacity="0.5" stroke-linecap="round" stroke-linejoin="round"/>
</svg>
