<svg width="1921" height="431" viewBox="0 0 1921 431" fill="none" xmlns="http://www.w3.org/2000/svg">
<g clip-path="url(#clip0_1041_19504)">
<g opacity="0.03">
<path d="M380.291 -463.903C388.016 -149.415 568.76 466.423 1229.94 413.864C2056.41 348.166 2478.63 1013.26 2528.07 1265.06" stroke="white"/>
<path d="M-294.532 -228.572C-119.481 38.9328 367.388 485.406 914.464 131.259C1598.31 -311.424 2321.63 64.7162 2499.41 258.691" stroke="white"/>
<path d="M335.889 -449.843C352.006 -135.694 549.165 475.622 1208.86 407.691C2033.49 322.777 2473.42 977.701 2529.57 1228.22" stroke="white"/>
<path d="M292.753 -435.887C317.253 -122.273 530.704 484.14 1188.52 400.879C2010.78 296.803 2468.14 941.148 2530.97 1190.23" stroke="white"/>
<path d="M250.89 -422.065C283.756 -109.181 513.368 491.953 1168.88 393.414C1988.27 270.239 2462.78 903.606 2532.25 1151.1" stroke="white"/>
<path d="M210.287 -408.405C251.5 -96.445 497.128 499.036 1149.94 385.279C1965.95 243.083 2457.3 865.077 2533.37 1110.82" stroke="white"/>
<path d="M170.931 -394.93C220.465 -84.0888 481.958 505.369 1131.66 376.466C1943.78 215.337 2451.68 825.571 2534.3 1069.42" stroke="white"/>
<path d="M132.835 -381.681C190.659 -72.1508 467.854 510.917 1114.04 366.948C1921.77 186.986 2445.89 785.081 2535.01 1026.88" stroke="white"/>
<path d="M95.9659 -368.682C162.044 -60.6552 454.769 515.661 1097.04 356.715C1899.87 158.033 2439.9 743.617 2535.46 983.222" stroke="white"/>
<path d="M60.3587 -355.952C134.65 -49.6214 442.722 519.584 1080.68 345.76C1878.12 128.48 2433.71 701.19 2535.66 938.448" stroke="white"/>
<path d="M25.9576 -343.539C108.416 -39.0937 431.644 522.648 1064.89 334.054C1856.44 98.3117 2427.25 657.79 2535.52 892.553" stroke="white"/>
<path d="M-7.19765 -331.454C83.3767 -29.084 421.56 524.845 1049.7 321.598C1834.87 67.5397 2420.55 613.44 2535.07 845.562" stroke="white"/>
<path d="M-39.1482 -319.738C59.4855 -19.6307 412.413 526.14 1035.05 308.367C1813.36 36.1511 2413.54 568.133 2534.24 797.471" stroke="white"/>
<path d="M-69.9036 -308.406C36.7282 -10.7489 404.182 526.525 1020.94 294.361C1791.89 4.15611 2406.2 521.89 2533.01 748.299" stroke="white"/>
<path d="M-99.4749 -297.501C15.0888 -2.47775 396.839 525.965 1007.33 279.555C1770.45 -28.4584 2398.51 474.705 2531.34 698.046" stroke="white"/>
<path d="M-127.841 -287.036C-5.41696 5.16841 390.393 524.452 994.239 263.948C1749.05 -61.6823 2390.46 426.598 2529.24 646.732" stroke="white"/>
<path d="M-155.047 -277.051C-24.8384 12.1541 384.785 521.955 981.611 247.52C1727.64 -95.5245 2382.02 377.569 2526.66 594.359" stroke="white"/>
<path d="M-181.112 -267.567C-43.2002 18.4587 379.983 518.461 969.416 230.264C1706.21 -129.981 2373.13 327.632 2523.54 540.943" stroke="white"/>
<path d="M-206.027 -258.605C-60.497 24.0635 375.982 513.956 957.656 212.178C1684.75 -165.045 2363.81 276.803 2519.9 486.502" stroke="white"/>
<path d="M-229.814 -250.204C-76.7562 28.9309 372.747 508.409 946.302 193.237C1663.24 -200.729 2354.02 225.079 2515.69 431.037" stroke="white"/>
<path d="M-252.478 -242.378C-91.9888 33.0512 370.26 501.816 935.337 173.446C1641.68 -237.017 2343.75 172.486 2510.89 374.574" stroke="white"/>
<path d="M-274.054 -235.16C-106.232 36.3913 368.475 494.152 924.725 152.788C1620.04 -273.918 2332.95 119.026 2505.47 317.119" stroke="white"/>
</g>
</g>
<defs>
<clipPath id="clip0_1041_19504">
<rect width="1921" height="431" fill="white"/>
</clipPath>
</defs>
</svg>
