<svg width="1920" height="750" viewBox="0 0 1920 750" fill="none" xmlns="http://www.w3.org/2000/svg">
<g clip-path="url(#clip0_795_3275)">
<g opacity="0.03">
<path d="M133.645 -323.939C215.739 26.2928 553.184 676.089 1246.21 473.418C2112.5 220.079 2719.13 872.454 2831.01 1143.46" stroke="white"/>
<path d="M-531.017 86.2218C-281.447 347.472 342.813 741.143 843.291 225.822C1468.89 -418.33 2328.88 -154.807 2564.1 23.568" stroke="white"/>
<path d="M89.5724 -298.544C180.54 49.4817 534.435 690.646 1222.28 471.095C2082.08 196.656 2705.21 833.797 2823.95 1101.91" stroke="white"/>
<path d="M46.8332 -273.542C146.617 72.061 516.743 704.194 1198.97 467.9C2051.76 172.532 2691 794.043 2816.52 1059.09" stroke="white"/>
<path d="M5.41226 -248.967C113.951 93.9995 500.077 716.709 1176.27 463.818C2021.5 147.704 2676.46 753.2 2808.69 1015.03" stroke="white"/>
<path d="M-34.6946 -224.846C82.532 115.27 484.418 728.169 1154.15 458.838C1991.31 122.175 2661.57 711.278 2800.43 969.719" stroke="white"/>
<path d="M-73.5147 -201.207C52.3264 135.847 469.722 738.555 1132.58 452.952C1961.15 95.9487 2646.29 668.293 2791.7 923.186" stroke="white"/>
<path d="M-111.044 -178.092C23.3333 155.69 455.98 747.831 1111.55 446.134C1931.01 69.013 2630.62 624.243 2782.48 875.431" stroke="white"/>
<path d="M-147.329 -155.523C-4.4985 174.781 443.13 755.987 1091 438.383C1900.85 41.3783 2614.48 579.149 2772.7 826.475" stroke="white"/>
<path d="M-182.326 -133.532C-31.1318 193.088 431.201 762.999 1070.98 429.685C1870.7 13.0433 2597.92 533.02 2762.39 776.33" stroke="white"/>
<path d="M-216.115 -112.156C-56.651 210.577 420.098 768.838 1051.38 420.022C1840.48 -15.9982 2580.83 485.861 2751.46 725.005" stroke="white"/>
<path d="M-248.648 -91.42C-81.0126 227.225 409.856 773.489 1032.25 409.388C1810.24 -45.7391 2563.27 437.692 2739.95 672.52" stroke="white"/>
<path d="M-279.988 -71.3564C-104.286 243.002 400.397 776.93 1013.52 397.77C1779.92 -76.1812 2545.14 388.52 2727.77 618.886" stroke="white"/>
<path d="M-310.128 -51.9864C-126.469 257.891 391.716 779.15 995.179 385.166C1749.51 -107.314 2526.46 338.369 2714.92 564.131" stroke="white"/>
<path d="M-339.119 -33.3483C-147.617 271.855 383.747 780.122 977.18 371.559C1718.97 -139.144 2507.17 287.244 2701.33 508.26" stroke="white"/>
<path d="M-366.923 -15.4669C-167.697 284.873 376.515 779.831 959.549 356.944C1688.34 -171.665 2487.29 235.162 2687.05 451.296" stroke="white"/>
<path d="M-393.6 1.62577C-186.773 296.915 369.949 778.257 942.221 341.309C1657.56 -204.878 2466.77 182.136 2671.99 393.254" stroke="white"/>
<path d="M-419.185 17.9102C-204.886 307.966 364.001 775.392 925.154 324.653C1626.6 -238.77 2445.56 128.189 2656.12 334.159" stroke="white"/>
<path d="M-443.651 33.3592C-222.013 318.001 358.684 771.221 908.371 306.973C1595.48 -273.338 2423.69 73.3391 2639.46 274.033" stroke="white"/>
<path d="M-467.059 47.9349C-238.22 326.985 353.927 765.718 891.805 288.248C1564.15 -308.589 2401.1 17.5906 2621.93 212.883" stroke="white"/>
<path d="M-489.391 61.6229C-253.494 334.908 349.734 758.881 875.47 268.486C1532.64 -344.507 2377.8 -39.0271 2603.57 150.743" stroke="white"/>
<path d="M-510.718 74.3947C-267.909 341.746 346.025 750.694 859.291 247.68C1500.87 -381.088 2353.72 -96.4984 2584.28 87.6317" stroke="white"/>
</g>
</g>
<defs>
<clipPath id="clip0_795_3275">
<rect width="1920" height="750" fill="white"/>
</clipPath>
</defs>
</svg>
