<svg width="160" height="44" viewBox="0 0 160 44" fill="none" xmlns="http://www.w3.org/2000/svg">
<g clip-path="url(#clip0_1041_19297)">
<path d="M73.1729 26.2794C73.1729 27.1209 73.0507 27.905 72.8052 28.6317C72.5604 29.3393 72.1927 29.9609 71.7023 30.4963C71.2315 31.0319 70.6373 31.4526 69.921 31.7586C69.2236 32.0454 68.4126 32.1889 67.4892 32.1889H58.0156V12.4238H67.1216C68.1396 12.4238 69.0068 12.5768 69.7231 12.8828C70.4394 13.1697 71.0239 13.5617 71.4764 14.059C71.9478 14.5562 72.2868 15.13 72.4944 15.7802C72.702 16.4304 72.8052 17.1189 72.8052 17.8456C72.8052 18.1898 72.7491 18.5532 72.6355 18.9357C72.5414 19.3181 72.3906 19.6911 72.1836 20.0545C71.9949 20.4178 71.75 20.7525 71.4483 21.0585C71.1466 21.3644 70.7979 21.6131 70.4016 21.8043C70.873 22.0339 71.2785 22.3302 71.6175 22.6936C71.9759 23.0379 72.2678 23.4203 72.4944 23.8411C72.7204 24.2427 72.8901 24.6634 73.0031 25.1033C73.1167 25.524 73.1729 25.9161 73.1729 26.2794ZM68.1396 18.3619C68.1396 17.8074 67.979 17.3579 67.659 17.0137C67.3384 16.6503 66.7539 16.4687 65.9057 16.4687H62.5121V20.0545H65.9057C66.6972 20.0545 67.2626 19.9014 67.6022 19.5955C67.9601 19.2704 68.1396 18.8592 68.1396 18.3619ZM68.3375 26.1073C68.3375 25.4953 68.1585 24.979 67.8001 24.5582C67.4605 24.1375 66.895 23.9271 66.1036 23.9271H62.5121V28.1441H66.1036C66.8388 28.1441 67.3946 27.9624 67.772 27.599C68.1488 27.2166 68.3375 26.7193 68.3375 26.1073Z" fill="white"/>
<path d="M81.1371 12.4238V32.1889H76.6406V12.4238H81.1371Z" fill="white"/>
<path d="M99.3335 29.4633C98.8999 30.0179 98.4004 30.4864 97.8349 30.8689C97.2883 31.2323 96.7228 31.5287 96.1384 31.7582C95.554 31.9877 94.9695 32.1503 94.3851 32.2459C93.8007 32.3415 93.2535 32.3893 92.7448 32.3893C91.8587 32.3893 90.9628 32.265 90.0584 32.0164C89.1533 31.7678 88.3332 31.3853 87.5979 30.8689C86.8627 30.3526 86.2593 29.7023 85.7879 28.9183C85.3353 28.115 85.1094 27.1684 85.1094 26.0783V18.7058C85.1094 17.6157 85.3262 16.6691 85.7598 15.8659C86.2123 15.0626 86.7967 14.3933 87.513 13.8578C88.2483 13.3032 89.0685 12.892 89.9735 12.6243C90.8779 12.3566 91.8019 12.2227 92.7448 12.2227C93.8947 12.2227 95.0446 12.3948 96.1946 12.739C97.3634 13.0642 98.3344 13.571 99.1075 14.2594L96.9298 17.7879C96.2886 17.2332 95.601 16.8699 94.8657 16.6978C94.1494 16.5065 93.4801 16.4109 92.8578 16.4109C92.481 16.4109 92.1036 16.4683 91.7268 16.583C91.3494 16.6978 91.0007 16.8794 90.6801 17.128C90.3601 17.3576 90.0956 17.6731 89.8886 18.0747C89.6999 18.4572 89.6059 18.9353 89.6059 19.5091V25.1029C89.6059 25.6766 89.6999 26.1644 89.8886 26.5659C90.0767 26.9484 90.3222 27.264 90.6239 27.5126C90.9256 27.7421 91.2553 27.9142 91.6132 28.029C91.9906 28.1437 92.3674 28.2011 92.7448 28.2011C93.0837 28.2011 93.433 28.1533 93.7909 28.0576C94.1677 27.962 94.517 27.7803 94.837 27.5126V24.8447H92.1506V21.0008H99.3335V29.4633Z" fill="white"/>
<path d="M107.082 20.3987H114.859V24.4435H107.082V32.1889H102.586V12.4238H116.188V16.4973H107.082V20.3987Z" fill="white"/>
<path d="M123.223 12.4238V32.1889H118.727V12.4238H123.223Z" fill="white"/>
<path d="M142.044 26.3938C142.044 27.3883 141.836 28.2585 141.421 29.0043C141.007 29.7311 140.441 30.343 139.725 30.8402C139.027 31.3375 138.198 31.7104 137.236 31.959C136.293 32.2076 135.294 32.3319 134.238 32.3319C133.522 32.3319 132.825 32.2937 132.146 32.2172C131.486 32.1407 130.845 32.0068 130.223 31.8156C129.601 31.6052 128.979 31.3279 128.357 30.9837C127.754 30.6203 127.15 30.1709 126.547 29.6354L129.064 26.2791C129.893 26.9484 130.723 27.4457 131.552 27.7708C132.4 28.0768 133.249 28.2298 134.097 28.2298C134.72 28.2298 135.238 28.1724 135.653 28.0576C136.067 27.9429 136.397 27.7994 136.642 27.6274C136.907 27.4361 137.085 27.2353 137.18 27.0249C137.293 26.8146 137.349 26.6138 137.349 26.4225C137.349 26.1356 137.274 25.887 137.123 25.6766C136.991 25.4472 136.756 25.2368 136.416 25.0455C136.077 24.8543 135.624 24.663 135.059 24.4718C134.512 24.2806 133.824 24.0702 132.995 23.8407C132.089 23.5921 131.288 23.3148 130.591 23.0088C129.893 22.6837 129.299 22.3012 128.809 21.8613C128.338 21.4023 127.98 20.8669 127.735 20.2549C127.49 19.6429 127.367 18.9066 127.367 18.0461C127.367 17.1472 127.537 16.344 127.876 15.6364C128.234 14.9097 128.725 14.2976 129.346 13.8004C129.987 13.284 130.742 12.892 131.609 12.6243C132.495 12.3566 133.456 12.2227 134.493 12.2227C135.624 12.2227 136.737 12.3278 137.83 12.5382C138.943 12.7486 140.093 13.2554 141.28 14.0586L139.272 17.7305C138.348 17.1376 137.5 16.7647 136.727 16.6117C135.973 16.4587 135.209 16.3822 134.437 16.3822C133.72 16.3822 133.136 16.5065 132.684 16.7551C132.249 16.9846 132.033 17.3767 132.033 17.9313C132.033 18.1799 132.099 18.4094 132.231 18.6198C132.382 18.811 132.627 19.0023 132.966 19.1935C133.305 19.3848 133.749 19.576 134.295 19.7673C134.842 19.9393 135.511 20.1402 136.303 20.3696C137.547 20.7139 138.546 21.106 139.3 21.5458C140.055 21.9665 140.63 22.4351 141.026 22.9514C141.44 23.4486 141.714 23.9937 141.846 24.5866C141.978 25.1603 142.044 25.7627 142.044 26.3938Z" fill="white"/>
<path d="M155.453 32.1889V24.1853H149.231V32.1889H144.734V12.4238H149.231V20.0831H155.453V12.4238H160.005V32.1889H155.453Z" fill="white"/>
<path d="M17.2323 39.0311C17.3278 39.2222 17.4234 39.3178 17.519 39.5089C17.519 39.5089 17.519 39.5089 17.6145 39.6044C17.7101 39.7 17.9012 39.9867 18.0923 40.2733C18.0923 40.2733 18.0923 40.2733 18.0923 40.3689C18.9523 41.8978 19.3345 41.8978 19.6212 41.5156L19.7167 41.42C19.8123 41.3244 19.9078 41.1333 20.0034 41.0378C19.8123 40.3689 19.4301 39.6044 18.9523 38.6489C18.1878 37.2156 17.2323 35.5911 16.5634 33.8711C16.4678 33.4889 16.3723 33.2978 16.3723 33.0111C15.9901 31.6733 15.8945 30.24 15.9901 29.0933C15.9901 28.9978 15.9901 28.8067 15.9901 28.7111C16.0856 28.3289 16.1812 27.9467 16.3723 27.3733C17.0412 25.4622 18.1878 23.6467 19.9078 21.8311C20.099 21.64 20.1945 21.5444 20.3856 21.3533C20.3856 21.3533 20.3856 21.3533 20.4812 21.2578C26.2145 15.5244 38.4456 14.4733 38.4456 14.4733L33.7634 18.3911C32.3301 19.7289 30.9923 21.1622 30.419 21.64L32.4256 21.1622C30.5145 23.6467 28.9856 25.94 28.2212 27.1822L28.1256 27.2778C28.1256 27.2778 28.9856 23.7422 27.2656 23.7422C25.6412 23.7422 22.3923 28.7111 23.539 31.4822C23.7301 31.8644 23.9212 32.2467 24.1123 32.5333C24.9723 33.7756 26.4056 34.6356 28.2212 34.8267C30.6101 35.3044 34.3367 34.7311 38.2545 31.5778C42.6501 28.1378 45.3256 20.3022 43.0323 14.5689C41.9812 11.7978 39.4967 9.50445 35.1012 7.97556C33.0945 7.30667 31.7567 7.11556 30.8012 7.11556C30.3234 6.63778 29.6545 6.06445 28.8901 5.49111C26.8834 4.15333 23.9212 3.00667 20.1945 3.67556C15.9901 4.44 19.5256 5.3 21.1501 6.63778C21.7234 7.11556 21.9145 7.68889 21.1501 8.45333C20.6723 8.93111 20.5767 9.21778 20.7678 9.40889C20.3856 9.6 20.0034 9.79111 19.6212 9.98222C17.6145 11.1289 12.9323 13.4222 12.0723 20.8756C11.499 23.9333 11.8812 27.66 14.1745 31.5778C14.2701 31.7689 14.3656 31.96 14.4612 32.1511C14.4612 32.2467 14.4612 32.2467 14.5567 32.3422C14.939 33.3933 14.1745 33.4889 12.5501 33.68C12.1678 33.7756 11.7856 33.8711 11.3078 33.8711C8.05896 34.0622 6.53007 37.7889 5.76562 40.4644C5.95674 40.6556 6.05229 40.2733 6.91229 40.4644C6.91229 40.4644 9.11007 41.2289 11.499 39.0311C13.219 37.4067 15.8945 36.9289 17.2323 39.0311Z" fill="white"/>
</g>
<defs>
<clipPath id="clip0_1041_19297">
<rect width="160" height="44" fill="white"/>
</clipPath>
</defs>
</svg>
