<svg width="22" height="22" viewBox="0 0 22 22" fill="none" xmlns="http://www.w3.org/2000/svg">
<path d="M11 3V1M11 19V21M5.414 5.414L4 4M16.728 16.728L18.142 18.142M3 11H1M19 11H21M16.729 5.414L18.143 4M5.415 16.728L4 18.142M11 16C9.67392 16 8.40215 15.4732 7.46447 14.5355C6.52678 13.5979 6 12.3261 6 11C6 9.67392 6.52678 8.40215 7.46447 7.46447C8.40215 6.52678 9.67392 6 11 6C12.3261 6 13.5979 6.52678 14.5355 7.46447C15.4732 8.40215 16 9.67392 16 11C16 12.3261 15.4732 13.5979 14.5355 14.5355C13.5979 15.4732 12.3261 16 11 16Z" stroke="#0B0918" stroke-width="2" stroke-linecap="round" stroke-linejoin="round"/>
</svg>
