<svg width="14" height="14" viewBox="0 0 14 14" fill="none" xmlns="http://www.w3.org/2000/svg">
<path d="M3.84649 11.8253L6.99648 9.92526L10.1465 11.8503L9.32148 8.25026L12.0965 5.85026L8.44648 5.52526L6.99648 2.12526L5.54648 5.50026L1.89648 5.82526L4.67148 8.25026L3.84649 11.8253ZM6.99648 11.1023L3.36648 13.2943C3.25982 13.3469 3.16082 13.3683 3.06948 13.3583C2.97882 13.3476 2.89048 13.3163 2.80448 13.2643C2.71782 13.2109 2.65248 13.1356 2.60848 13.0383C2.56448 12.9409 2.56048 12.8346 2.59648 12.7193L3.56248 8.60926L0.367484 5.83926C0.277484 5.76592 0.218151 5.67826 0.189485 5.57626C0.160818 5.47426 0.167151 5.37659 0.208485 5.28326C0.249818 5.18992 0.304818 5.11326 0.373485 5.05326C0.442818 4.99526 0.536151 4.95592 0.653485 4.93526L4.86948 4.56726L6.51348 0.675258C6.55882 0.565258 6.62415 0.485924 6.70949 0.437258C6.79482 0.388591 6.89048 0.364258 6.99648 0.364258C7.10248 0.364258 7.19848 0.388591 7.28448 0.437258C7.37048 0.485924 7.43548 0.565258 7.47948 0.675258L9.12348 4.56726L13.3385 4.93526C13.4565 4.95526 13.5502 4.99492 13.6195 5.05426C13.6888 5.11292 13.7442 5.18926 13.7855 5.28326C13.8262 5.37659 13.8322 5.47426 13.8035 5.57626C13.7748 5.67826 13.7155 5.76592 13.6255 5.83926L10.4305 8.60926L11.3965 12.7193C11.4338 12.8333 11.4302 12.9393 11.3855 13.0373C11.3408 13.1353 11.2752 13.2106 11.1885 13.2633C11.1032 13.3166 11.0148 13.3483 10.9235 13.3583C10.8328 13.3683 10.7342 13.3469 10.6275 13.2943L6.99648 11.1023Z" fill="white" fill-opacity="0.5"/>
</svg>
