<svg width="1160" height="448" viewBox="0 0 1160 448" fill="none" xmlns="http://www.w3.org/2000/svg">
<g style="mix-blend-mode:difference">
<path d="M26.2285 216.568L0 2.55358H29.2783L45.0154 155.039L65.0223 2.55358H91.3728L111.502 155.039L125.409 2.55358H154.809L130.167 216.568H97.5944L78.5635 74.2971L58.8006 216.568H26.2285Z" fill="white"/>
<path d="M163.91 216.568V2.55358H235.886V30.643H196.604V92.9017H233.934V120.383H196.604V188.479H237.35V216.568H163.91Z" fill="white"/>
<path d="M249.012 216.568V2.55358H295.492C306.308 2.55358 314.929 4.21544 321.354 7.53914C327.779 10.7818 332.415 15.97 335.261 23.1038C338.189 30.1566 339.653 39.4386 339.653 50.95V57.5164C339.653 68.6224 338.189 77.7829 335.261 84.9978C332.415 92.1316 327.616 97.1172 320.866 99.9545C326.478 101.819 330.951 105.183 334.285 110.047C337.701 114.83 340.141 120.707 341.605 127.679C343.069 134.57 343.801 142.149 343.801 150.418V155.89C343.719 170.158 342.052 181.791 338.799 190.789C335.546 199.706 330.463 206.232 323.55 210.366C316.637 214.501 307.609 216.568 296.467 216.568H249.012ZM281.706 191.275H293.296C297.606 191.275 301.022 190.343 303.543 188.479C306.146 186.533 308.016 183.331 309.155 178.872C310.293 174.414 310.863 168.334 310.863 160.632V143.365C310.863 132.989 309.846 125.45 307.813 120.748C305.861 115.965 301.754 113.574 295.492 113.574H281.706V191.275ZM281.706 89.1321H293.784C296.63 89.1321 298.948 88.7268 300.737 87.9162C302.526 87.1055 303.909 85.7274 304.885 83.7818C305.861 81.7551 306.512 78.9584 306.837 75.3914C307.244 71.8245 307.447 67.2848 307.447 61.7724V48.8828C307.447 43.1272 306.918 38.7496 305.861 35.7501C304.804 32.7507 303.177 30.724 300.981 29.6702C298.867 28.6163 296.102 28.0894 292.686 28.0894H281.706V89.1321Z" fill="white"/>
<path d="M428.122 219C419.176 219 411.694 217.622 405.676 214.866C399.739 212.028 395.022 207.934 391.524 202.584C388.109 197.153 385.669 190.586 384.205 182.885C382.741 175.103 382.009 166.267 382.009 156.376V137.285H412.995V158.808C412.995 170.32 413.971 178.589 415.923 183.615C417.875 188.641 421.738 191.154 427.512 191.154C431.416 191.154 434.344 190.262 436.296 188.479C438.329 186.614 439.671 183.696 440.322 179.723C441.054 175.67 441.42 170.401 441.42 163.916C441.42 155.89 439.712 148.554 436.296 141.906C432.961 135.259 427.878 128.368 421.047 121.234L405.188 104.94C400.796 100.4 396.811 95.5769 393.232 90.4697C389.735 85.3626 386.929 79.688 384.815 73.4459C382.782 67.1227 381.765 60.07 381.765 52.2876C381.765 41.0194 383.148 31.4942 385.913 23.7118C388.678 15.9295 393.354 10.0522 399.942 6.07996C406.53 2.02665 415.557 0 427.024 0C435.645 0 442.721 1.33759 448.251 4.01277C453.863 6.60688 458.214 10.4575 461.304 15.5647C464.476 20.5908 466.713 26.7518 468.014 34.0478C469.315 41.2626 469.966 49.5314 469.966 58.854V72.1083H439.834V56.7868C439.834 50.3015 439.468 44.9106 438.736 40.6141C438.085 36.3176 436.825 33.1155 434.954 31.0078C433.083 28.819 430.359 27.7246 426.78 27.7246C423.365 27.7246 420.599 28.4947 418.485 30.035C416.37 31.4942 414.825 33.8046 413.849 36.9661C412.955 40.0466 412.507 44.0594 412.507 49.0044C412.507 53.4631 413.077 57.3137 414.215 60.5564C415.354 63.799 417.102 66.92 419.461 69.9195C421.819 72.9189 424.747 76.2832 428.244 80.0122L445.933 99.1033C454.392 108.183 460.979 117.627 465.696 127.436C470.413 137.245 472.772 148.189 472.772 160.268C472.772 173.076 471.389 183.858 468.624 192.613C465.859 201.287 461.223 207.853 454.717 212.312C448.211 216.771 439.346 219 428.122 219Z" fill="white"/>
<path d="M494.56 216.568V30.7646H469.429V2.55358H551.286V30.7646H527.132V216.568H494.56Z" fill="white"/>
<path d="M603.085 219C591.943 219 582.875 216.933 575.88 212.798C568.886 208.583 563.762 202.26 560.509 193.829C557.256 185.317 555.629 174.576 555.629 161.605V2.55358H588.324V160.997C588.324 166.996 588.568 172.265 589.056 176.805C589.625 181.345 590.926 184.871 592.959 187.384C594.993 189.897 598.327 191.154 602.963 191.154C607.599 191.154 610.933 189.938 612.966 187.506C615.081 184.993 616.382 181.466 616.87 176.927C617.358 172.387 617.602 167.077 617.602 160.997V2.55358H650.296V161.605C650.296 174.576 648.669 185.317 645.416 193.829C642.245 202.26 637.161 208.583 630.167 212.798C623.254 216.933 614.227 219 603.085 219Z" fill="white"/>
<path d="M668.424 216.568V2.55358H716.612C727.51 2.55358 736.252 4.74236 742.84 9.11993C749.428 13.4164 754.185 19.6585 757.113 27.8462C760.122 36.0339 761.627 45.9239 761.627 57.5164L761.749 154.066C761.749 168.09 760.204 179.764 757.113 189.087C754.104 198.328 749.224 205.219 742.474 209.758C735.724 214.298 726.737 216.568 715.514 216.568H668.424ZM701.118 191.275H711.854C715.676 191.275 718.848 190.505 721.369 188.965C723.972 187.425 725.883 184.709 727.103 180.818C728.404 176.846 729.055 171.252 729.055 164.037L728.933 58.3676C728.933 47.4237 727.591 39.5602 724.907 34.7773C722.223 29.9944 717.506 27.603 710.756 27.603H701.118V191.275Z" fill="white"/>
<path d="M779.633 216.568V2.55358H812.327V216.568H779.633Z" fill="white"/>
<path d="M877.911 219C866.769 219 857.66 216.649 850.584 211.947C843.59 207.245 838.426 200.274 835.091 191.032C831.757 181.791 830.089 170.36 830.089 156.741V58.854C830.089 46.5319 831.716 35.9933 834.969 27.2382C838.222 18.4831 843.387 11.7546 850.462 7.05275C857.538 2.35092 866.809 0 878.277 0C886.898 0 894.176 1.33759 900.113 4.01277C906.05 6.68795 910.849 10.5791 914.509 15.6863C918.168 20.7124 920.812 26.8734 922.438 34.1693C924.146 41.3842 925 49.6124 925 58.854V156.741C925 170.36 923.373 181.791 920.12 191.032C916.948 200.274 911.906 207.245 904.993 211.947C898.08 216.649 889.053 219 877.911 219ZM877.911 190.789C881.977 190.789 885.027 189.573 887.06 187.141C889.093 184.709 890.435 181.021 891.086 176.076C891.818 171.049 892.184 164.726 892.184 157.106V57.3948C892.184 48.0722 891.289 40.8978 889.5 35.8717C887.792 30.7646 884.051 28.211 878.277 28.211C872.34 28.211 868.314 30.6835 866.199 35.6285C864.085 40.4925 863.028 47.7074 863.028 57.2732V157.106C863.028 164.888 863.353 171.293 864.003 176.319C864.735 181.264 866.159 184.912 868.273 187.263C870.469 189.614 873.682 190.789 877.911 190.789Z" fill="white"/>
</g>
<g style="mix-blend-mode:difference">
<path d="M0 445.568V231.554H48.2123C59.116 231.554 67.8634 233.742 74.4544 238.12C81.0455 242.416 85.8057 248.659 88.735 256.846C91.7458 265.034 93.2511 274.924 93.2511 286.516L93.3732 383.066C93.3732 397.09 91.8271 408.764 88.735 418.087C85.7243 427.328 80.842 434.219 74.0883 438.758C67.3345 443.298 58.343 445.568 47.1138 445.568H0ZM32.7111 420.275H43.4521C47.2765 420.275 50.45 419.505 52.9725 417.965C55.5764 416.425 57.4886 413.709 58.7091 409.818C60.0111 405.846 60.662 400.252 60.662 393.037L60.54 287.368C60.54 276.424 59.1974 268.56 56.5121 263.777C53.8269 258.994 49.1074 256.603 42.3536 256.603H32.7111V420.275Z" fill="white"/>
<path d="M111.267 445.568V231.554H143.978V445.568H111.267Z" fill="white"/>
<path d="M204.835 447.757C191.897 447.757 181.482 442.69 173.589 432.557C165.696 422.343 161.749 405.805 161.749 382.944V289.921C161.749 280.355 162.644 271.803 164.434 264.264C166.306 256.725 169.154 250.361 172.978 245.173C176.884 239.903 181.929 235.931 188.113 233.256C194.298 230.5 201.743 229.122 210.45 229.122C219.889 229.122 227.578 230.54 233.518 233.378C239.458 236.134 244.015 240.187 247.189 245.537C250.444 250.807 252.681 257.292 253.902 264.993C255.122 272.695 255.733 281.409 255.733 291.137V306.337H225.219V283.963C225.219 274.316 224.201 267.466 222.167 263.413C220.214 259.359 216.471 257.333 210.938 257.333C204.835 257.333 200.604 259.724 198.244 264.507C195.884 269.209 194.704 277.599 194.704 289.678V382.458C194.704 395.915 195.681 405.562 197.634 411.399C199.668 417.154 203.859 420.032 210.206 420.032C216.39 420.032 220.743 417.073 223.266 411.155C225.87 405.157 227.171 395.185 227.171 381.242V352.423H210.694V328.711H255.733V445.568H241.086L236.082 424.531C234.291 431.908 230.467 437.624 224.608 441.677C218.831 445.73 212.24 447.757 204.835 447.757Z" fill="white"/>
<path d="M274.725 445.568V231.554H307.436V445.568H274.725Z" fill="white"/>
<path d="M339.122 445.568V259.765H313.978V231.554H395.878V259.765H371.711V445.568H339.122Z" fill="white"/>
<path d="M383.013 445.568L413.649 231.554H456.857L489.446 445.568H458.932L453.806 407.386H419.142L414.504 445.568H383.013ZM422.315 381.242H450.388L435.986 273.748H435.497L422.315 381.242Z" fill="white"/>
<path d="M496.477 445.568V231.554H529.188V417.843H570.565V445.568H496.477Z" fill="white"/>
<path d="M608.183 445.568V231.554H656.395C667.299 231.554 676.046 233.742 682.637 238.12C689.228 242.416 693.988 248.659 696.918 256.846C699.929 265.034 701.434 274.924 701.434 286.516L701.556 383.066C701.556 397.09 700.01 408.764 696.918 418.087C693.907 427.328 689.025 434.219 682.271 438.758C675.517 443.298 666.526 445.568 655.297 445.568H608.183ZM640.894 420.275H651.635C655.459 420.275 658.633 419.505 661.155 417.965C663.759 416.425 665.671 413.709 666.892 409.818C668.194 405.846 668.845 400.252 668.845 393.037L668.723 287.368C668.723 276.424 667.38 268.56 664.695 263.777C662.01 258.994 657.29 256.603 650.536 256.603H640.894V420.275Z" fill="white"/>
<path d="M718.717 445.568V231.554H790.73V259.643H751.428V321.902H788.778V349.383H751.428V417.479H792.195V445.568H718.717Z" fill="white"/>
<path d="M843.044 448C834.093 448 826.607 446.622 820.585 443.866C814.645 441.028 809.926 436.934 806.427 431.584C803.009 426.153 800.568 419.586 799.104 411.885C797.639 404.103 796.906 395.267 796.906 385.376V366.285H827.909V387.808C827.909 399.32 828.885 407.589 830.838 412.615C832.791 417.641 836.656 420.154 842.434 420.154C846.339 420.154 849.269 419.262 851.222 417.479C853.256 415.614 854.599 412.696 855.249 408.723C855.982 404.67 856.348 399.401 856.348 392.916C856.348 384.89 854.639 377.554 851.222 370.906C847.885 364.259 842.8 357.368 835.965 350.234L820.097 333.94C815.703 329.4 811.716 324.577 808.136 319.47C804.637 314.363 801.829 308.688 799.714 302.446C797.68 296.123 796.662 289.07 796.662 281.288C796.662 270.019 798.046 260.494 800.812 252.712C803.579 244.929 808.258 239.052 814.849 235.08C821.44 231.027 830.472 229 841.945 229C850.571 229 857.65 230.338 863.183 233.013C868.798 235.607 873.151 239.458 876.243 244.565C879.417 249.591 881.654 255.752 882.956 263.048C884.258 270.263 884.909 278.531 884.909 287.854V301.108H854.761V285.787C854.761 279.301 854.395 273.911 853.663 269.614C853.012 265.318 851.75 262.115 849.879 260.008C848.007 257.819 845.281 256.725 841.701 256.725C838.284 256.725 835.517 257.495 833.401 259.035C831.286 260.494 829.74 262.805 828.763 265.966C827.868 269.047 827.421 273.059 827.421 278.004C827.421 282.463 827.99 286.314 829.129 289.556C830.269 292.799 832.018 295.92 834.378 298.919C836.738 301.919 839.667 305.283 843.166 309.012L860.864 328.103C869.327 337.183 875.918 346.627 880.637 356.436C885.357 366.245 887.716 377.189 887.716 389.268C887.716 402.076 886.333 412.858 883.567 421.613C880.8 430.287 876.162 436.853 869.652 441.312C863.142 445.771 854.273 448 843.044 448Z" fill="white"/>
<path d="M899.019 445.568V231.554H931.73V445.568H899.019Z" fill="white"/>
<path d="M992.587 447.757C979.649 447.757 969.234 442.69 961.341 432.557C953.448 422.343 949.501 405.805 949.501 382.944V289.921C949.501 280.355 950.397 271.803 952.187 264.264C954.058 256.725 956.906 250.361 960.731 245.173C964.636 239.903 969.681 235.931 975.866 233.256C982.05 230.5 989.495 229.122 998.202 229.122C1007.64 229.122 1015.33 230.54 1021.27 233.378C1027.21 236.134 1031.77 240.187 1034.94 245.537C1038.2 250.807 1040.43 257.292 1041.65 264.993C1042.87 272.695 1043.48 281.409 1043.48 291.137V306.337H1012.97V283.963C1012.97 274.316 1011.95 267.466 1009.92 263.413C1007.97 259.359 1004.22 257.333 998.69 257.333C992.587 257.333 988.356 259.724 985.996 264.507C983.637 269.209 982.457 277.599 982.457 289.678V382.458C982.457 395.915 983.433 405.562 985.386 411.399C987.42 417.154 991.611 420.032 997.958 420.032C1004.14 420.032 1008.5 417.073 1011.02 411.155C1013.62 405.157 1014.92 395.185 1014.92 381.242V352.423H998.446V328.711H1043.48V445.568H1028.84L1023.83 424.531C1022.04 431.908 1018.22 437.624 1012.36 441.677C1006.58 445.73 999.992 447.757 992.587 447.757Z" fill="white"/>
<path d="M1061.74 445.568V231.554H1087.38L1132.9 359.962L1130.58 301.595V231.554H1160V445.568H1136.81L1090.06 312.66L1091.89 368.839V445.568H1061.74Z" fill="white"/>
</g>
</svg>
